<svg xmlns="http://www.w3.org/2000/svg" fill="none" viewBox="0 0 16 16"><path fill="#212431" stroke="#555B77" d="M8 2.5a5.5 5.5 0 110 11 5.5 5.5 0 010-11z"/><path fill="#F5DFA5" fill-rule="evenodd" d="M9.585 6.385a.397.397 0 00.295-.125.408.408 0 00.123-.292.397.397 0 00-.123-.297.41.41 0 00-.295-.12.387.387 0 00-.29.12.41.41 0 00-.118.297c0 .117.04.216.118.297.078.08.175.12.29.12zM9.188 6.75h.795v3.063h-.795V6.75zM7.73 8.781H6.65l-.001.001-.296 1.031H5.62l1.04-3.625v-.396h.99l1.182 4.02h-.816l-.285-1.03zm-.153-.698L7.18 6.5l-.398 1.583h.795z" clip-rule="evenodd"/></svg>