<svg xmlns="http://www.w3.org/2000/svg" fill="none" viewBox="0 0 16 16"><path fill="#B2E4AE" fill-rule="evenodd" d="M9.675 3.33l.622-.62a.244.244 0 000-.338.244.244 0 00-.337 0l-.703.702A2.867 2.867 0 008 2.78c-.456 0-.883.11-1.263.3l-.707-.708a.238.238 0 00-.332 0 .235.235 0 000 .337l.622.622a2.84 2.84 0 00-1.168 2.297h5.695c0-.95-.474-1.78-1.172-2.297zM6.576 4.68h.475v-.475h-.475v.475zm2.373 0h.475v-.475h-.475v.475zm2.373 2.135a.712.712 0 011.424 0v3.322a.712.712 0 11-1.424 0V6.814zm-7.356-.712a.712.712 0 00-.712.712v3.322a.712.712 0 101.424 0V6.814a.712.712 0 00-.712-.712zm1.66 5.22a.475.475 0 01-.474-.474V6.102h5.695v4.746a.475.475 0 01-.474.475h-.475v1.66a.712.712 0 01-1.424 0v-1.66h-.949v1.66a.712.712 0 01-1.424 0v-1.66h-.474z" clip-rule="evenodd"/></svg>