<svg xmlns="http://www.w3.org/2000/svg" fill="none" viewBox="0 0 16 16"><g fill="#D46C6C"><path fill-rule="evenodd" d="M10.007 5.77a247.115 247.115 0 011.402-.255c.087-.016.164-.03.31.16l.553.75c.27.369.541.737.576.78.065.08.049.145-.072.181l-1.075.314-.273.079c.4.583 1.16 1.698 1.225 1.803.088.142.008.184-.122.242-.13.059-3.016 1.193-3.213 1.258l-.01.003c-.245.082-.358.12-.52-.128-.123-.188-.789-1.5-1.115-2.145-.618.176-1.749.499-2.075.585-.318.083-.454-.125-.506-.254l-.466-1.101a578.935 578.935 0 01-1.58-3.75c-.117-.303.012-.36.13-.37.117-.012 1.769-.162 1.984-.172.204-.01.233.037.315.172l.015.024 2.38 4.35 2.993-.783-.99-1.535c-.083-.125.001-.183.134-.208zm-4.4 3.12c-.087.022-.09.013-.1-.018v-.004c-.01-.033-1.993-4.503-2.02-4.559-.028-.055-.027-.1 0-.1.013 0 .447-.041.865-.082l.772-.073c.046-.003.05.006.061.03l.009.017 2.234 4.217.013.024c.029.051.034.062-.033.08l-1.802.469zm4.7-2.774l.877 1.315 1.137-.307c.065-.015.114-.04.085-.08l-.14-.195v-.001c-.23-.318-.66-.914-.701-.975-.053-.08-.091-.07-.134-.06l-.005.002c-.045.01-1.041.208-1.102.217-.062.008-.041.046-.017.084zm1.833 3.285l-.006-.011-.469-.696c-.015-.026-.166-.255-.303-.46v-.002a45.408 45.408 0 01-.218-.33c-.036-.056-.056-.067-.142-.038l-2.918.83s.896 1.695.965 1.803c.069.11.11.1.164.075.032-.014 1.01-.377 1.82-.677h.001l1.07-.397c.076-.03.06-.057.036-.097z" clip-rule="evenodd"/><path d="M11.383 5.52l.04.247-.04-.247zm-1.376.25l-.045-.246.045.246zm1.402-.255l-.045-.246.045.246zm.31.16l.198-.15-.199.15zm.553.75l.201-.147-.201.148zm.576.78l-.194.158.194-.158zm-.072.181l-.07-.24.07.24zm-1.075.314l-.07-.24.07.24zm-.273.079l-.07-.24-.33.096.194.285.207-.141zm1.225 1.803l-.212.131.212-.131zm-.122.242l-.103-.228.103.228zm-3.213 1.258l-.079-.237.079.237zm-.01.003l-.078-.237.079.237zm-.52-.128l.21-.137-.21.137zM7.673 8.812l.223-.113-.093-.184-.2.056.07.24zm-2.075.585l.064.242-.064-.242zm-.506-.254l.231-.094-.231.094zm-.466-1.101l.23-.098-.23.098zm-1.58-3.75l-.233.091.233-.09zm.13-.37l.022.248-.022-.249zM5.16 3.75l.013.25-.013-.25zm.315.172l-.213.13.213-.13zm.015.024l.22-.12-.007-.01-.213.13zm2.38 4.35l-.219.12.094.172.19-.05-.064-.241zm2.993-.783l.064.242.334-.088-.188-.29-.21.136zm-.99-1.535l-.21.137.21-.137zM5.507 8.872l.24-.072-.24.072zm.098.019l.06.242h.001l-.06-.242zm-.1-.023l.24-.071v-.003l-.24.074zM3.487 4.31l.225-.11-.225.11zm.866-.182l-.024-.249.024.25zm0 0l.023.25-.023-.25zm.772-.073l.015.25-.015-.25zm.061.03l.227-.106-.227.106zm.009.017l.22-.117-.22.117zm2.234 4.217l.221-.117-.22.117zm.013.024l-.219.12.22-.12zm-.033.08l-.064-.243.064.242zm3.776-.991l-.208.139.1.15.173-.048-.065-.241zm-.877-1.315l-.21.136.002.003.208-.139zm2.014 1.008l-.058-.243h-.001l.059.243zm.085-.08l-.204.145.204-.145zm-.14-.195l.203-.146-.203.146zm0 0l.202-.147-.203.147zm0 0l-.204.146.203-.147zm0-.001l-.204.146.203-.146zm-.701-.975l.208-.139-.208.139zm-.134-.06l.06.243-.06-.243zm-.005.002l.06.242-.06-.242zm-1.102.217l.035.247h.001l-.036-.247zm1.81 3.358l.215-.128-.004-.006-.004-.006-.207.14zm.006.01l-.215.128v.001l.215-.128zm-.475-.706l-.216.126.004.007.005.007.207-.14zm-.303-.46l.209-.139-.209.138zm0-.001l-.209.138.209-.138zm0-.001l-.21.138.21-.138zm-.218-.33l.21-.134-.21.134zm-.142-.038l.069.241.013-.005-.082-.236zm-2.918.83l-.068-.24-.297.084.144.273.221-.117zm.965 1.803l-.212.134.212-.134zm.164.075l-.106-.226.106.226zm1.82-.677l.087.235-.086-.235zm.001 0l-.087-.234.087.234zm1.07-.397l-.093-.232.092.232zm-.76-4.225c-.102.016-1.252.227-1.382.251l.09.492a254.1 254.1 0 011.37-.25l-.078-.493zm.02-.004a.986.986 0 01-.02.004l.078.494.032-.006-.09-.492zm.553.256a.677.677 0 00-.286-.24c-.121-.047-.227-.023-.267-.016l.09.492.027-.004c-.006 0-.017-.001-.028-.005-.009-.004-.008-.006.004.005a.48.48 0 01.062.07l.398-.302zm.556.753c-.238-.325-.48-.653-.556-.753l-.398.302c.073.097.31.42.551.747l.403-.296zm.569.77l-.001-.002a.16.16 0 01-.004-.005l-.013-.017a13.04 13.04 0 01-.174-.235l-.377-.511-.403.296c.267.362.544.74.584.789l.388-.316zm-.195.578c.08-.024.217-.08.27-.23.057-.157-.026-.288-.075-.349l-.388.316c.004.005-.004-.003-.01-.024a.174.174 0 01.003-.111.163.163 0 01.056-.078c.012-.009.016-.008.002-.004l.142.48zm-1.076.314l1.076-.314-.142-.48-1.074.314.14.48zm-.273.079l.273-.08-.14-.48-.273.08.14.48zm1.368 1.431c-.069-.11-.836-1.234-1.231-1.812l-.413.282c.402.589 1.158 1.695 1.219 1.793l.425-.263zm-.233.602a1.16 1.16 0 00.111-.055.426.426 0 00.133-.118.337.337 0 00.061-.236.469.469 0 00-.072-.193l-.425.263c.012.02.003.013 0-.013a.165.165 0 01.03-.11c.016-.025.032-.031.02-.024a.714.714 0 01-.063.03l.205.456zM9.396 11.32c.107-.036.889-.34 1.645-.636.757-.297 1.52-.6 1.592-.632l-.204-.456-.004.002c-.003 0-.006.002-.01.004a4.91 4.91 0 01-.144.058l-.361.144-1.052.414c-.768.302-1.529.597-1.619.627l.157.475zm-.009.003l.01-.003-.158-.475-.009.003.157.475zm-.808-.23c.095.146.217.272.402.299.083.012.16 0 .222-.014.061-.014.126-.036.184-.055l-.157-.475a1.77 1.77 0 01-.14.043c-.033.008-.04.006-.037.006.027.004.011.025-.056-.077l-.418.274zm-1.13-2.169c.164.324.412.814.635 1.247.219.424.424.815.495.923l.418-.274a19.22 19.22 0 01-.468-.878c-.222-.431-.47-.92-.633-1.243l-.446.225zm-1.787.715c.33-.087 1.464-.41 2.08-.587l-.138-.48c-.62.177-1.747.498-2.07.583l.128.484zm-.802-.402a.72.72 0 00.24.315.65.65 0 00.562.087l-.127-.484a.242.242 0 01-.101.01.097.097 0 01-.043-.018.226.226 0 01-.068-.098l-.463.188zM4.396 8.14l.464 1.098.463-.188-.466-1.105-.46.195zM2.813 4.383c.083.215 1.006 2.394 1.583 3.756l.46-.195c-.58-1.37-1.497-3.537-1.576-3.742l-.467.181zm.34-.71c-.074.006-.246.032-.344.195-.095.158-.061.346.004.515l.467-.18a.386.386 0 01-.03-.108c0-.012.003.005-.013.031a.111.111 0 01-.048.044c-.007.003-.007.002.01 0l-.046-.498zM5.148 3.5a149.1 149.1 0 00-1.995.172l.046.498C3.32 4.16 4.964 4.01 5.173 4l-.025-.5zm.54.291c-.03-.05-.088-.155-.19-.22a.575.575 0 00-.35-.071l.025.5a.389.389 0 01.072 0c.006.001-.003 0-.016-.008-.012-.008-.016-.014-.009-.005.009.011.02.028.042.065l.426-.26zm.015.024l-.015-.024-.426.26c.004.009.01.017.015.026l.426-.262zM8.09 8.177l-2.38-4.35-.44.24 2.381 4.35.44-.24zm2.71-.906l-2.993.784.127.484 2.993-.784-.127-.484zM9.663 6.115l.99 1.533.42-.27c-.165-.257-.918-1.425-.992-1.537l-.418.274zm.298-.59a.492.492 0 00-.295.153.332.332 0 00-.075.235c.005.08.037.15.072.202l.418-.274c-.006-.01.006.005.008.039a.167.167 0 01-.037.115c-.02.025-.039.032-.035.03a.186.186 0 01.036-.01l-.092-.49zM5.268 8.942l.007.023a.271.271 0 00.184.176c.057.015.106.01.13.007a.719.719 0 00.078-.016l-.12-.485-.024.005a.206.206 0 01.073.007.228.228 0 01.15.139c.002.004.003.007.001.001l-.479.143zm0-.003v.003l.48-.143-.002-.003-.479.143zM3.261 4.42l.023.052a108.743 108.743 0 01.299.67 2300.932 2300.932 0 011.686 3.81l.004.008-.006-.018.478-.148-.006-.015a.245.245 0 00-.01-.025 8.328 8.328 0 00-.083-.19l-.228-.515a1816.83 1816.83 0 00-1.708-3.85l-.449.22zm.224-.46a.267.267 0 00-.222.117.288.288 0 00-.048.159c0 .072.023.137.046.184L3.71 4.2c-.004-.009.006.006.006.042a.212.212 0 01-.037.116.233.233 0 01-.193.102v-.5zm.842-.081a662 662 0 01-.84.08h-.002v.5l.046-.002a12.955 12.955 0 00.259-.025l.584-.056-.047-.497zm0 0l.047.497-.047-.498zm.782-.075c-.033.002-.408.039-.782.075l.047.497a614.98 614.98 0 01.746-.07l.018-.002-.03-.5zm.302.174c-.001-.002-.011-.024-.025-.045a.279.279 0 00-.092-.09c-.081-.047-.166-.04-.185-.039l.03.5-.016-.001a.221.221 0 01-.156-.098c-.009-.014-.014-.025-.009-.014l.453-.213zm.002.005l-.002-.005-.453.213.015.028.44-.236zM7.65 8.201L5.415 3.984l-.442.235 2.234 4.216.442-.234zm.011.02a1.231 1.231 0 01-.01-.02l-.443.234c.006.01.012.02.015.028l.438-.242zm-.19.442a.446.446 0 00.087-.03.275.275 0 00.142-.164.28.28 0 00-.01-.19c-.01-.025-.025-.05-.029-.058l-.438.242c.01.018.007.013.004.005-.002-.004-.03-.067-.004-.148a.225.225 0 01.112-.135c.016-.008.026-.01.01-.006l.127.484zm-1.803.47c.091-.023 1.77-.46 1.804-.47l-.127-.483-1.798.468.121.485zm5.725-1.84l-.877-1.315-.416.277.877 1.315.416-.278zm.87-.412a75.846 75.846 0 00-.975.263l-.123.033-.034.01a.917.917 0 01-.009.002h-.002l.065.242.065.241h.003l.01-.003.033-.01a370.054 370.054 0 01.885-.239l.137-.036.043-.012.014-.003.004-.001h.001l-.117-.487zm-.06.308a.216.216 0 01-.033-.165.213.213 0 01.1-.143l.007-.003-.013.003.115.487a.456.456 0 00.174-.077.288.288 0 00.108-.172.285.285 0 00-.05-.22l-.407.29zm-.139-.193l.14.193.407-.29-.141-.196-.406.293zm0-.001l.406-.292-.406.292zm0 0l.405-.293-.405.293zm0 0l.405-.293-.406.292zm-.706-.983c.044.066.48.669.705.982l.406-.292c-.232-.322-.658-.911-.695-.968l-.416.278zm.135.044c.014-.004.008-.002-.002 0a.17.17 0 01-.066-.007c-.06-.017-.079-.055-.067-.037l.416-.278a.384.384 0 00-.21-.165c-.096-.028-.183 0-.194.002l.123.485zm-.005.001l.005-.001-.123-.485-.004.001.122.485zm-1.127.222a70.74 70.74 0 001.127-.222l-.122-.485-.047.01a28.853 28.853 0 01-.486.097 112.644 112.644 0 01-.531.103l-.014.002.073.495zm.158-.298c-.006-.009-.005-.007-.002-.002 0 .002.016.031.017.075a.226.226 0 01-.079.18c-.045.038-.09.044-.095.045l-.071-.495a.31.31 0 00-.159.07.274.274 0 00-.096.218c.003.06.023.106.033.126a.521.521 0 00.031.054l.42-.27zm1.4 3.536l.007.011.43-.255-.006-.01-.43.254zm-.46-.683l.468.695.415-.279-.469-.696-.414.28zm-.304-.463l.196.298.071.108.028.043.432-.251c-.02-.035-.179-.275-.31-.474l-.417.276zm0 0l.416-.276-.416.276zm-.001-.001l.417-.275v-.001l-.417.276zm-.22-.334c.022.036.119.18.22.334l.417-.276a48.23 48.23 0 01-.215-.326l-.422.268zm.15.064c.017-.005.018-.004.01-.003a.189.189 0 01-.155-.054c-.01-.011-.012-.018-.005-.007l.422-.268c-.016-.025-.073-.12-.191-.157-.106-.032-.204.003-.243.017l.163.472zm-2.93.835l2.918-.83-.137-.481-2.918.83.137.48zm1.107 1.428l-.004-.006a1.365 1.365 0 01-.05-.088l-.117-.217a164.695 164.695 0 01-.745-1.402l-.029-.054-.007-.014-.002-.003v-.001l-.222.116-.22.117v.001l.002.004.007.014.029.054a476.987 476.987 0 00.418.788c.228.43.476.894.517.96l.423-.269zm-.153-.017c-.01.005 0 0 .016-.004a.178.178 0 01.09.005c.034.011.052.028.057.033.005.004 0 .001-.01-.017l-.423.268a.43.43 0 00.223.192c.126.04.23-.01.259-.024l-.212-.453zm1.84-.685a1316.36 1316.36 0 00-1.638.607c-.1.038-.182.069-.202.078l.211.453.166-.062.434-.162 1.202-.445-.173-.47zm0 0l.174.469-.174-.47zm1.064-.395l-.008.003-.02.008a23.34 23.34 0 01-.305.113l-.73.27.173.47c.554-.205 1.037-.384 1.075-.4l-.185-.464zm-.085.263c.008.014.004.008 0-.002a.207.207 0 01-.013-.115.212.212 0 01.072-.128c.02-.017.034-.021.026-.018l.184.465c.039-.016.184-.074.211-.237a.294.294 0 00-.02-.164c-.012-.027-.028-.052-.031-.058l-.43.257z"/></g></svg>