<svg xmlns="http://www.w3.org/2000/svg" fill="none" viewBox="0 0 16 16"><g fill-rule="evenodd" clip-rule="evenodd"><path fill="#F5DFA5" d="M8 13.915a5.915 5.915 0 100-11.83 5.915 5.915 0 000 11.83z"/><path fill="#212431" d="M7.775 3.963a3.745 3.745 0 01-.253-1.01c-.484.343-.878.84-1.168 1.41a3.737 3.737 0 01-.602-.857c-.328.492-.518 1.096-.585 1.73a3.761 3.761 0 01-.851-.575c-.13.576-.09 1.208.074 1.823a3.736 3.736 0 01-1.023-.233c.086.585.35 1.162.724 1.677a3.76 3.76 0 01-1.017.142c.29.518.745.962 1.282 1.31-.248.193-.542.36-.919.513.455.377 1.036.628 1.658.761-.16.261-.371.516-.66.786.559.189 1.19.216 1.817.117a3.745 3.745 0 01-.337.984c.59-.023 1.191-.226 1.743-.544.06.307.074.643.039 1.046 1.192-.513 2.118-1.844 2.444-3.161.088-.238.135-.582.135-1.056 0-.127-.003-.25-.007-.37a6.136 6.136 0 002.067-.731c.147-.087.297-.213.345-.318a.505.505 0 00-.386-.835.507.507 0 00-.492.385c-.784-.408-1.681-1.235-1.462-2.43a3.34 3.34 0 01.706-.691c-.589-.07-1.215.037-1.81.266a3.75 3.75 0 01.125-1.03c-.571.146-1.115.467-1.587.89zm2.486 4.323c.108-.019.216-.04.321-.064a5.819 5.819 0 001.668-.643c.046-.026.089-.056.128-.087.035-.052.033-.09.007-.122-.478-.123-1.08-.45-1.514-.874-.473-.462-.737-1.009-.733-1.617-.24.546-.166 1.118-.055 1.86a.211.211 0 00.028-.413.338.338 0 11.01.663c.056.382.114.809.14 1.297z"/><path fill="#fff" d="M10.267 8.21a16.408 16.408 0 00-.125-1.133l-.011-.073.094-.011a.345.345 0 00.238-.54.452.452 0 00-.285-.144h-.068l.072.068c.054.05.073.085.073.133 0 .086-.047.171-.11.2-.048.022-.051.02-.062-.042-.086-.487-.113-1.063-.064-1.342.017-.1.05-.232.072-.293l.04-.112v.091c.002.05.02.174.04.274.139.665.591 1.248 1.32 1.697a4.4 4.4 0 00.726.346.876.876 0 01.168.069c.034.034-.005.084-.132.164-.388.246-1.012.492-1.593.63-.413.097-.381.096-.393.018z"/></g></svg>