<svg xmlns="http://www.w3.org/2000/svg" fill="none" viewBox="0 0 16 16"><path fill="#D46C6C" d="M8.22 7.951c.022-.85-.618-2.068-3.03-1.955l-1.061.002v4.001l1.098-.002c1.28-.005 2.906-.27 2.992-2.046zm4.634-4.431H3.146C2.513 3.52 2 4.089 2 4.792v6.416c0 .703.513 1.272 1.146 1.272h9.708c.633 0 1.146-.57 1.146-1.272V4.792c0-.703-.513-1.272-1.146-1.272zM9.211 5.7c1.16-.917 2.347-.309 2.777.532.429.837-.086 2.247-1.69 2.21-.212 1.175-1.353 2.925-4.601 2.788H3.392c-.157-.018-.263-.088-.254-.276L3.13 5.001c0-.116.095-.213.216-.228l2.493-.004c1.582.007 2.506.246 3.372.932zm2.888-.148a.49.49 0 010-.885c.37-.196.836.05.836.442s-.466.638-.836.443z"/></svg>