<svg xmlns="http://www.w3.org/2000/svg" fill="none" viewBox="0 0 16 16"><path fill="#5F7CE3" fill-rule="evenodd" d="M7.542 4h.99v.99h-.99V4zm4.74 3.323c-.413-.394-.526-1.567 0-2.087l.155-.176.157.151c.503.386.789.821.858 1.307.7-.205 1.214-.07 1.744.252-.344.693-.873 1.128-2.056 1.081C12.069 10.43 9.766 11.975 6.348 12c-1.805 0-3.097-.629-3.878-1.936-.434-.77-.526-1.325-.442-2.389h1.145l.234.025H9.965l.234-.025c.928.026 1.504-.03 2.082-.352zM4.473 6.64h-.99v.99h.99v-.99zm.371 0h.99v.99h-.99v-.99zm2.35 0h-.989v.99h.99v-.99zm.347 0h.99v.99h-.99v-.99zM5.835 5.32h-.99v.99h.99v-.99zm.371 0h.99v.99h-.99v-.99zm2.326 0h-.99v.99h.99v-.99zm1.344 1.32h-.99v.99h.99v-.99z" clip-rule="evenodd"/></svg>