<svg xmlns="http://www.w3.org/2000/svg" fill="none" viewBox="0 0 16 16"><path fill="#A99BE2" d="M5.676 6.824l2.26-1.303a.183.183 0 01.183 0l2.26 1.303a.183.183 0 01.091.158V9.59a.183.183 0 01-.091.158l-2.26 1.304a.183.183 0 01-.183 0l-2.26-1.304a.183.183 0 01-.092-.158V6.982c0-.065.035-.125.092-.158"/><path fill="#5F7CE3" fill-rule="evenodd" d="M11.203 3.319l2.7 4.693a.529.529 0 010 .538l-2.7 4.662a.53.53 0 01-.475.254H5.327a.533.533 0 01-.476-.257l-2.7-4.654a.558.558 0 010-.554l2.7-4.682a.57.57 0 01.476-.295h5.4a.57.57 0 01.476.295zm.363 7.117a.198.198 0 00.102-.168V6.304a.198.198 0 00-.102-.168L8.123 4.154a.195.195 0 00-.194 0l-3.44 1.982a.197.197 0 00-.101.168v3.964c0 .07.042.133.102.168l3.442 1.982c.06.035.135.035.194 0l3.44-1.982z" clip-rule="evenodd"/></svg>