<svg xmlns="http://www.w3.org/2000/svg" fill="none" viewBox="0 0 16 16">
  <g fill-rule="evenodd" clip-rule="evenodd">
    <path fill="#7CA4C0" d="M6.06815 6.76679c-.77915 0-1.52628.64396-1.50493 1.65739 0 1.04511.69376 1.65742 1.61166 1.65742.38424 0 .81117-.13726 1.14204-.35895l-.3202-.5595c-.23481.13723-.45895.20057-.69376.20057-.42693 0-.7578-.20057-.84319-.68618h1.93186c.01067-.0739.03202-.22169.03202-.39059.01067-.85509-.45895-1.52016-1.3555-1.52016zm3.00944 1.33127c.04521.01651.09186.03354.13916.05165.41626.13723.87525.38004.87525.96065 0 .58062-.45899 1.02404-1.31285 1.02404-.40558 0-.89655-.17951-1.21675-.44343l.41626-.61228c.28817.22169.555.32726.82184.32726.28817 0 .41625-.10557.41625-.26392 0-.19637-.27698-.30142-.58192-.41707l-.06915-.02631c-.38423-.14779-.84318-.41171-.84318-.92898 0-.58061.49097-.99232 1.21675-.99232.49097 0 .85386.21113 1.12065.41171l-.42689.5595c-.23481-.16891-.44828-.26392-.68309-.26392-.23481 0-.36289.09501-.36289.25336 0 .18095.21951.2611.49056.36006zm2.57811-.00327c.0469.01753.0952.03561.144.05492.4162.13723.8752.38004.8752.96065 0 .58062-.459 1.02404-1.3128 1.02404-.4056 0-.8966-.17951-1.2168-.44343l.427-.61228c.2881.22169.555.32726.8218.32726.2882 0 .4163-.10557.4163-.26392 0-.19637-.277-.30142-.582-.41707l-.0691-.02631c-.3843-.14779-.8432-.41171-.8432-.92898 0-.58061.491-.99232 1.2167-.99232.491 0 .8539.21113 1.1207.41171l-.4269.5595c-.2348-.16891-.4483-.26392-.6831-.26392-.2348 0-.3629.09501-.3629.25336 0 .17895.2147.25932.4751.35679zm-5.57688-.62071c-.29885 0-.55501.20058-.61905.62285h1.15271c0-.35893-.14942-.62285-.53366-.62285z"/>
    <path fill="#81C5DA" d="M3.39082 5.5h-.56734c-.57635 0-.83251.22169-.83251.90787 0 .45393.06404.70729.06404 1.09789 0 .22169-.13875.45393-.55501.47505v.54894c.41626.01056.55501.2428.55501.46449 0 .3906-.06404.62284-.06404 1.07676 0 .6862.25616.9079.82184.9079h.41625v-.4856h-.12807c-.26684 0-.35222-.1056-.35222-.454 0-.34832.03202-.64391.03202-1.0345 0-.48561-.1601-.67563-.4803-.74952v-.03167c.3202-.0739.4803-.26392.4803-.74952 0-.38004-.03202-.68618-.03202-1.03455 0-.34837.07471-.44338.35222-.44338h.28983V5.5zM13.945 7.50576c0-.41171.064-.65451.064-1.09789 0-.68618-.2561-.90787-.8218-.90787h-.4163v.4856h.1281c.2882 0 .3522.09501.3522.44338 0 .32726-.032.65451-.032 1.03455 0 .48561.1601.67563.4803.74952v.03167c-.3202.0739-.4803.26392-.4803.74952 0 .38004.032.68618.032 1.03456 0 .3589-.0747.4539-.3522.4539v.0106h-.1281V11h.4163c.5657 0 .8218-.2217.8218-.9079 0-.4539-.064-.68615-.064-1.09786 0-.22169.1387-.45393.555-.47505v-.54894c-.4163-.01056-.555-.2428-.555-.46449z"/>
    <path fill="#7CA4C0" d="M4.33908 9.07869V5.5h-.51972-.4302v3.52591c0 .64396.22414 1.06619.87521 1.06619.20279 0 .36289-.0316.48029-.0739l-.10673-.68615c-.06404.01056-.29885-.05278-.29885-.25336z"/>
  </g>
</svg>
