<svg xmlns="http://www.w3.org/2000/svg" fill="none" viewBox="0 0 16 16">
  <path fill="#BD733D" fill-rule="evenodd" d="M8.87005 10.7094h-1.7401V8.00127l-1.3156 1.73195-1.31559-1.73195v2.70813h-1.7401V5.29312h1.7401l1.31559 1.81223 1.3156-1.81223h1.7401v5.41628zm2.61135.4372L9.3156 8h1.3156V5.29184h1.7401V8h1.3156l-2.2042 3.1466h-.0013zM13.995 3.5H2.00495c-.27063 0-.50578.1028-.70545.30841C1.09983 4.01402 1 4.25616 1 4.53483v6.93037c0 .2922.09983.5378.2995.7366.19967.1988.43482.2982.70545.2982H13.995c.2707 0 .5058-.0994.7055-.2982.1997-.1988.2995-.4444.2995-.7366V4.53483c0-.27867-.0998-.52081-.2995-.72642C14.5008 3.6028 14.2657 3.5 13.995 3.5z" clip-rule="evenodd"/>
</svg>
