<svg xmlns="http://www.w3.org/2000/svg" fill="none" viewBox="0 0 16 16"><path fill="#6B7394" fill-rule="evenodd" d="M14 7H9a2 2 0 00-2 2v4.8H3.2A1.2 1.2 0 012 12.6V4.2A1.2 1.2 0 013.2 3h3l1.2 1.8h5.4A1.2 1.2 0 0114 6v1z" clip-rule="evenodd"/><rect width="7" height="7" x="8" y="8" fill="#304E2D" rx="1"/><path fill="#6EB668" fill-rule="evenodd" d="M11.5 8.875a.262.262 0 00-.13.034L9.2 10.143a.264.264 0 00-.13.228v2.476c0 .093.049.178.13.224l2.17 1.238c.08.046.18.046.26 0l2.17-1.238a.257.257 0 00.13-.224v-2.476a.263.263 0 00-.13-.228L11.63 8.91a.262.262 0 00-.13-.034" clip-rule="evenodd"/><mask id="a" width="5" height="7" x="9" y="8" maskUnits="userSpaceOnUse"><path fill="#fff" fill-rule="evenodd" d="M11.5 8.875a.262.262 0 00-.13.034L9.2 10.143a.264.264 0 00-.13.228v2.476c0 .093.049.178.13.224l2.17 1.238c.08.046.18.046.26 0l2.17-1.238a.257.257 0 00.13-.224v-2.476a.263.263 0 00-.13-.228L11.63 8.91a.262.262 0 00-.13-.034" clip-rule="evenodd"/></mask><g mask="url(#a)"><path fill="#B2E4AE" fill-rule="evenodd" d="M11.278 8.41l2.835 4.912-2.437 1.407-2.835-4.912 2.437-1.407z" clip-rule="evenodd"/></g></svg>