<svg xmlns="http://www.w3.org/2000/svg" fill="none" viewBox="0 0 16 16"><path fill="#6B7394" fill-rule="evenodd" d="M14 7H9a2 2 0 00-2 2v4.8H3.2A1.2 1.2 0 012 12.6V4.2A1.2 1.2 0 013.2 3h3l1.2 1.8h5.4A1.2 1.2 0 0114 6v1z" clip-rule="evenodd"/><rect width="7" height="7" x="8" y="8" fill="#1D2A58" rx="1"/><path fill="#5F7CE3" fill-rule="evenodd" d="M14.124 9.365l-1.25-.49-2.184 2.077-1.315-.978-.5.246v2.563l.498.244 1.313-.977 2.19 2.075 1.249-.488V9.365zm-1.39 1.208l-1.234.923 1.235.93v-1.853zm-3.24 1.467l-.001-1.08.617.536-.617.544z" clip-rule="evenodd"/></svg>