<svg xmlns="http://www.w3.org/2000/svg" fill="none" viewBox="0 0 16 16"><path fill="#6B7394" fill-rule="evenodd" d="M14 7H9a2 2 0 00-2 2v4.8H3.2A1.2 1.2 0 012 12.6V4.2A1.2 1.2 0 013.2 3h3l1.2 1.8h5.4A1.2 1.2 0 0114 6v1z" clip-rule="evenodd"/><rect width="7" height="7" x="8" y="8" fill="#212431" rx="1"/><path fill="#81C5DA" d="M11.61 8.875c-1.51 0-2.735 1.205-2.735 2.691 0 1.19.783 2.198 1.87 2.554.137.025.187-.059.187-.13l-.004-.5c-.76.162-.921-.318-.921-.318-.125-.31-.304-.394-.304-.394-.248-.167.019-.163.019-.163.274.018.42.277.42.277.243.412.64.293.795.223a.572.572 0 01.174-.359c-.607-.068-1.246-.299-1.246-1.33 0-.294.107-.534.281-.722-.027-.069-.122-.343.027-.713 0 0 .23-.072.752.276a2.645 2.645 0 011.37 0c.52-.348.75-.275.75-.275.15.37.056.644.028.712.175.188.28.428.28.722 0 1.034-.639 1.262-1.248 1.328.099.084.186.248.186.498 0 .36-.004.65-.004.739 0 .072.05.155.188.129a2.696 2.696 0 001.869-2.553c0-1.487-1.224-2.692-2.735-2.692z"/></svg>