<svg xmlns="http://www.w3.org/2000/svg" fill="none" viewBox="0 0 16 16"><path fill="#3F445A" fill-rule="evenodd" d="M14 7H9a2 2 0 00-2 2v4.8H3.2A1.2 1.2 0 012 12.6V4.2A1.2 1.2 0 013.2 3h3l1.2 1.8h5.4A1.2 1.2 0 0114 6v1z" clip-rule="evenodd"/><rect width="7" height="7" x="8" y="8" fill="#212431" rx="1"/><path fill="#F5DFA5" d="M13.216 12.923c.309.412-.515.712-.847.116l-.45.262.027.046c.17.286.435.454.794.502.785.094 1.298-.407 1.02-1.118-.198-.407-.716-.484-1.018-.684-.178-.104-.141-.323.001-.41.111-.07.367-.078.498.194l.431-.278c-.34-.613-1.145-.49-1.386-.21-.328.384-.234.815.055 1.09.224.216.576.289.875.49zm-2.039.87c.249-.101.395-.31.434-.618.003-.032.005-2.028.005-2.028h-.547l-.004 1.975c-.013.128-.09.22-.2.237-.191.03-.319-.025-.45-.273l-.446.27c.19.448.766.613 1.208.436zM9.18 8.687h4.64c.273 0 .492.22.492.492v4.64c0 .273-.22.492-.492.492H9.18a.492.492 0 01-.492-.492V9.18c0-.273.22-.492.492-.492z"/></svg>