<svg xmlns="http://www.w3.org/2000/svg" fill="none" viewBox="0 0 16 16"><path fill="#3F445A" fill-rule="evenodd" d="M14 7H9a2 2 0 00-2 2v4.8H3.2A1.2 1.2 0 012 12.6V4.2A1.2 1.2 0 013.2 3h3l1.2 1.8h5.4A1.2 1.2 0 0114 6v1z" clip-rule="evenodd"/><rect width="7" height="7" x="8" y="8" fill="#5F7CE3" rx="1"/><path fill="#212431" stroke="#212431" stroke-width=".5" d="M10.754 12.827a.293.293 0 01-.39 0l-1.273-1.131a.256.256 0 010-.392l1.274-1.131a.293.293 0 01.389 0v0a.293.293 0 010 .438l-1.001.889 1 .89a.293.293 0 010 .437v0zM12.635 12.827a.293.293 0 01-.389 0v0a.293.293 0 010-.438l1.001-.889-1-.89a.293.293 0 010-.437v0a.293.293 0 01.388 0l1.274 1.131a.256.256 0 010 .392l-1.274 1.131z"/></svg>