<svg xmlns="http://www.w3.org/2000/svg" fill="none" viewBox="0 0 16 16"><path fill="#D46C6C" d="M8.004 13.457l2.207-6.729H5.796l2.208 6.729z"/><path fill="#F5DFA5" d="M8.004 13.457L5.796 6.728H2.7l5.303 6.729z"/><path fill="#E2AC1D" d="M2.701 6.729l-.67 2.044a.45.45 0 00.165.506l5.808 4.178L2.7 6.73z"/><path fill="#D46C6C" d="M2.701 6.728h3.095l-1.33-4.052c-.069-.209-.367-.209-.435 0L2.7 6.728z"/><path fill="#F5DFA5" d="M8.004 13.457l2.207-6.729h3.095l-5.302 6.729z"/><path fill="#E2AC1D" d="M13.306 6.729l.67 2.044a.45.45 0 01-.165.506l-5.807 4.178 5.302-6.728z"/><path fill="#D46C6C" d="M13.306 6.728h-3.095l1.33-4.052c.069-.209.367-.209.435 0l1.33 4.052z"/></svg>