<svg xmlns="http://www.w3.org/2000/svg" fill="none" viewBox="0 0 16 16"><g fill="#D491B9"><path stroke="#D491B9" stroke-width=".5" d="M4.004 11.129l-.43-.253 4.79-8.454.43.253-4.79 8.454z"/><path stroke="#D491B9" stroke-width=".5" d="M3.476 10.2h9.578v.506H3.476V10.2z"/><path fill-rule="evenodd" d="M7.827 3.138l4.791 2.819.248-.439L8.076 2.7l-.249.439zm-4.162 7.347l4.791 2.819.248-.439-4.79-2.819-.249.439z" clip-rule="evenodd"/><path d="M12.618 5.957l-.127.215.22.129.125-.221-.218-.123zm-4.79-2.82l-.218-.123-.122.214.212.125.127-.215zm5.038 2.381l.218.124.121-.214-.212-.125-.127.215zM8.076 2.7l.126-.215-.219-.129-.125.221.217.123zm.38 10.604l-.127.216.22.129.125-.221-.218-.123zm-4.79-2.818l-.218-.124-.122.214.212.125.127-.215zm5.038 2.38l.218.124.121-.214-.212-.125-.127.215zm-4.79-2.819l.126-.215-.219-.129-.125.221.217.123zm8.831-4.305L7.954 2.922l-.254.431 4.792 2.819.253-.431zm-.096-.346l-.248.438.435.247.248-.438-.435-.247zm-4.7-2.48l4.79 2.819.254-.431-4.79-2.819-.254.43zm.096.346l.248-.438-.435-.247-.248.438.435.247zm.538 9.827l-4.791-2.819-.254.431 4.791 2.819.254-.431zm-.096-.346l-.248.438.435.247.248-.438-.435-.247zm-4.7-2.48l4.79 2.819.254-.431-4.79-2.819-.254.43zm.096.346l.248-.438-.435-.247-.248.438.435.247z"/><path stroke="#D491B9" stroke-width=".5" d="M3.915 5.954l-.249-.438 4.791-2.819.249.439-4.791 2.818z"/><path fill-rule="evenodd" d="M12.18 10.512L7.74 2.675l.43-.253 4.01 7.079v1.011zm.175.307h-.174v-.307l.174.307zm0 0h.322v-.442l.283.498-.43.254-.175-.31zm.322-.442l-.496-.876V5.18h.496v5.196zM3.855 5.181h.497v5.638h-.497V5.18z" clip-rule="evenodd"/><path d="M7.74 2.675l-.126-.215-.212.124.121.214.217-.123zm.43-.253l.218-.123-.125-.221-.22.129.127.215zm4.01 8.397h-.25v.25h.25v-.25zm.497 0v.25h.25v-.25h-.25zm.283.056l.127.216.212-.125-.122-.214-.217.123zm-.43.254l-.218.123.126.22.219-.128-.127-.215zm-.35-5.948v-.25h-.25v.25h.25zm.497 0h.25v-.25h-.25v.25zm-8.325 0h.25v-.25h-.25v.25zm-.497 0v-.25h-.25v.25h.25zm.497 5.638v.25h.25v-.25h-.25zm-.497 0h-.25v.25h.25v-.25zm3.668-8.02l4.44 7.837.435-.247-4.44-7.837-.435.246zm.52-.592l-.43.253.254.43.43-.252-.253-.431zm4.355 7.17L8.388 2.3l-.435.246 4.01 7.079.435-.246zm.033 1.135V9.502h-.5v1.011h.5zm-.076.057h-.174v.5h.174v-.5zm.076.25v-.307h-.5v.307h.5zm-.468-.183l.174.306.435-.246-.174-.307-.435.247zm.714-.067h-.322v.5h.322v-.5zm-.25-.192v.442h.5v-.442h-.5zm.75.375l-.282-.498-.435.246.282.499.435-.247zm-.52.592l.43-.253-.254-.43-.43.252.254.431zm-.52-.402l.175.31.435-.247-.175-.31-.435.247zm.758-.688l-.497-.876-.435.246.497.876.435-.246zM12.43 9.5V5.18h-.5V9.5h.5zm-.25-4.07h.496v-.5h-.496v.5zm.246-.25v5.196h.5V5.181h-.5zm-8.075-.25h-.497v.5h.497v-.5zm.25 5.888V5.18h-.5v5.638h.5zm-.747.25h.497v-.5h-.497v.5zm-.25-5.888v5.638h.5V5.18h-.5z"/><path stroke="#D491B9" stroke-width=".5" d="M8.372 13.09l-.217-.383 4.167-2.452.217.383-4.167 2.451z"/><g><path fill-rule="evenodd" d="M7.223 3.097c0 .588.466 1.063 1.043 1.063S9.31 3.685 9.31 3.097c0-.589-.467-1.064-1.044-1.064s-1.043.475-1.043 1.064zM3.577 6.47c.5.293 1.14.12 1.427-.39a1.077 1.077 0 00-.383-1.454 1.035 1.035 0 00-1.427.39 1.076 1.076 0 00.383 1.454zm8.332 4.904c.5.292 1.14.118 1.426-.39.29-.51.12-1.159-.383-1.454a1.035 1.035 0 00-1.426.39 1.076 1.076 0 00.383 1.454zm-8.712-.39A1.077 1.077 0 013.58 9.53a1.035 1.035 0 011.427.39 1.077 1.077 0 01-.383 1.454 1.034 1.034 0 01-1.427-.39zm8.715-6.358c-.5.296-.67.945-.383 1.454.287.51.927.683 1.427.39.499-.295.67-.945.382-1.453a1.035 1.035 0 00-1.426-.39zm-3.646 9.341a1.053 1.053 0 01-1.043-1.063c0-.589.466-1.064 1.043-1.064s1.044.475 1.044 1.064c0 .585-.467 1.063-1.044 1.063z" clip-rule="evenodd"/><path d="M5.004 6.08l-.218-.123.218.123zm-1.427.39l.127-.215-.127.215zm1.044-1.844l.127-.215-.127.215zm-1.427.39l.218.123-.218-.122zm10.141 5.967l-.217-.123.217.123zm-1.426.39l.126-.215-.126.216zm1.043-1.843l.127-.216-.127.216zm-1.426.39l.218.123-.218-.123zM3.58 9.53l-.126-.216h-.001l.127.216zm-.383 1.454l-.217.122.217-.123zm1.81-1.064l.217-.123-.217.123zm-.383 1.454l.126.216.001-.001-.127-.215zm6.905-5.294l-.218.123.218-.123zm.383-1.454l-.127-.215.127.215zm1.043 1.844l.127.216-.127-.216zm.383-1.453l.218-.123v-.001l-.218.124zM8.266 3.91a.803.803 0 01-.793-.813h-.5c0 .721.574 1.313 1.293 1.313v-.5zm.794-.813a.803.803 0 01-.794.813v.5c.72 0 1.294-.592 1.294-1.313h-.5zm-.794-.814c.435 0 .794.359.794.814h.5c0-.722-.574-1.314-1.294-1.314v.5zm-.793.814c0-.455.359-.814.793-.814v-.5c-.72 0-1.293.592-1.293 1.314h.5zm-2.687 2.86a.785.785 0 01-1.082.298l-.253.43a1.285 1.285 0 001.77-.482l-.435-.246zm-.292-1.115c.38.225.513.723.292 1.115l.435.246a1.327 1.327 0 00-.473-1.792l-.254.43zm-1.082.297a.785.785 0 011.082-.297l.253-.431a1.285 1.285 0 00-1.77.483l.435.245zm.292 1.116a.826.826 0 01-.292-1.116l-.435-.245a1.326 1.326 0 00.474 1.792l.252-.431zm9.413 4.606a.785.785 0 01-1.082.297l-.253.431a1.285 1.285 0 001.771-.483l-.436-.245zm-.291-1.116a.822.822 0 01.292 1.115l.434.247a1.322 1.322 0 00-.473-1.793l-.253.431zm-1.082.298a.785.785 0 011.082-.297l.253-.432a1.285 1.285 0 00-1.77.483l.435.246zm.291 1.115a.826.826 0 01-.291-1.115l-.436-.246a1.326 1.326 0 00.474 1.792l.253-.431zM3.453 9.315a1.327 1.327 0 00-.473 1.791l.435-.245a.827.827 0 01.292-1.116l-.254-.43zm1.77.481a1.285 1.285 0 00-1.77-.482l.253.432a.785.785 0 011.083.298l.435-.248zm-.472 1.793a1.327 1.327 0 00.473-1.792l-.435.246a.827.827 0 01-.293 1.115l.255.43zm-1.771-.483c.355.63 1.146.847 1.77.484l-.252-.432a.784.784 0 01-1.083-.297l-.435.245zm8.767-5.149a.827.827 0 01.292-1.115l-.255-.43a1.327 1.327 0 00-.473 1.791l.436-.246zm1.082.298a.785.785 0 01-1.082-.298l-.436.246c.355.63 1.15.847 1.77.483l-.252-.431zm.291-1.116a.827.827 0 01-.292 1.116l.255.43a1.327 1.327 0 00.473-1.791l-.435.245zm-1.082-.297a.786.786 0 011.083.298l.434-.247a1.285 1.285 0 00-1.77-.482l.253.431zm-5.065 8.062c0 .721.574 1.313 1.293 1.313v-.5a.803.803 0 01-.793-.813h-.5zm1.293-1.314c-.72 0-1.293.592-1.293 1.314h.5c0-.455.359-.814.793-.814v-.5zm1.294 1.314c0-.722-.574-1.314-1.294-1.314v.5c.435 0 .794.359.794.814h.5zm-1.294 1.313c.72 0 1.294-.595 1.294-1.313h-.5c0 .452-.36.813-.794.813v.5z"/></g></g></svg>