<svg xmlns="http://www.w3.org/2000/svg" fill="none" viewBox="0 0 16 16"><g fill="#81C5DA"><path fill-rule="evenodd" d="M12.159 4.61a.766.766 0 01-.13.429 5 5 0 11-1.067-1.067.77.77 0 011.197.64zm-2.362 7.645a4.602 4.602 0 001.468-.99A4.6 4.6 0 0012.618 8a4.588 4.588 0 00-.876-2.706.77.77 0 01-1.036-1.036A4.597 4.597 0 008 3.382a4.588 4.588 0 00-3.265 1.353A4.603 4.603 0 003.382 8a4.588 4.588 0 001.353 3.265A4.604 4.604 0 008 12.618a4.59 4.59 0 001.797-.363z" clip-rule="evenodd"/><path d="M12.029 5.039l-.208-.14-.098.146.104.142.202-.148zM10.96 3.97l-.148.202.142.104.146-.098-.14-.208zm.304 7.294l-.177-.177.177.177zm-1.468.99l.098.23-.098-.23zm2.458-2.458l-.23-.097.23.097zm0-3.594l-.23.097.23-.097zm-.513-.909l.203-.147-.127-.174-.19.099.114.222zm-1.036-1.036l.222.115.099-.191-.174-.127-.147.203zm-.909-.513l.098-.23-.098.23zm-3.594 0l.097.23-.097-.23zm-1.468.99l-.177-.177.177.177zm-.99 1.468l.23.097-.23-.097zm0 3.594l.23-.097-.23.097zm.99 1.468l.177-.177-.177.177zm1.468.99l-.098.23.098-.23zm6.033-7.077c.11-.162.173-.358.173-.567h-.5a.515.515 0 01-.088.288l.415.279zM13.25 8c0-1.164-.38-2.24-1.02-3.11l-.403.297c.58.787.923 1.76.923 2.813h.5zM8 13.25c2.9 0 5.25-2.35 5.25-5.25h-.5A4.75 4.75 0 018 12.75v.5zM2.75 8c0 2.9 2.35 5.25 5.25 5.25v-.5A4.75 4.75 0 013.25 8h-.5zM8 2.75A5.25 5.25 0 002.75 8h.5A4.75 4.75 0 018 3.25v-.5zm3.11 1.02A5.227 5.227 0 008 2.75v.5c1.053 0 2.026.343 2.813.923l.297-.403zm.28-.179c-.21 0-.406.064-.568.173l.279.415a.516.516 0 01.288-.088v-.5zm1.019 1.02a1.02 1.02 0 00-1.02-1.02v.5a.52.52 0 01.52.52h.5zm-1.32 6.477a4.355 4.355 0 01-1.39.937l.196.46c.58-.245 1.1-.596 1.547-1.043l-.354-.354zm.936-1.388c-.22.52-.535.987-.937 1.388l.354.354a4.854 4.854 0 001.043-1.547l-.46-.195zm.343-1.7a4.34 4.34 0 01-.343 1.7l.46.195A4.84 4.84 0 0012.868 8h-.5zm-.343-1.7c.227.538.343 1.11.343 1.7h.5a4.84 4.84 0 00-.383-1.895l-.46.195zm-.485-.86c.193.267.355.554.485.86l.46-.195a4.847 4.847 0 00-.54-.958l-.405.294zm-.15.19c.168 0 .327-.041.467-.114l-.23-.444a.516.516 0 01-.238.058v.5zm-1.02-1.02c0 .564.457 1.02 1.02 1.02v-.5a.52.52 0 01-.52-.52h-.5zm.114-.467c-.073.14-.114.3-.114.468h.5c0-.086.021-.167.058-.238l-.444-.23zM9.7 3.975c.306.13.593.292.86.485l.293-.405a4.847 4.847 0 00-.958-.54l-.195.46zM8 3.632c.59 0 1.162.116 1.7.343l.195-.46A4.838 4.838 0 008 3.132v.5zm-1.7.343A4.338 4.338 0 018 3.632v-.5c-.657 0-1.295.129-1.895.383l.195.46zm-1.388.937A4.353 4.353 0 016.3 3.975l-.195-.46c-.58.245-1.1.596-1.547 1.043l.354.354zM3.975 6.3c.22-.52.535-.987.937-1.388l-.354-.354a4.853 4.853 0 00-1.043 1.547l.46.195zM3.632 8c0-.59.116-1.162.343-1.7l-.46-.195A4.838 4.838 0 003.132 8h.5zm.343 1.7A4.338 4.338 0 013.632 8h-.5c0 .657.129 1.295.383 1.895l.46-.195zm.937 1.388A4.352 4.352 0 013.975 9.7l-.46.195c.245.58.596 1.1 1.043 1.547l.354-.354zm1.388.937a4.353 4.353 0 01-1.388-.937l-.354.354c.447.447.968.798 1.547 1.043l.195-.46zm1.7.343c-.59 0-1.162-.116-1.7-.343l-.195.46A4.84 4.84 0 008 12.868v-.5zm1.7-.343a4.339 4.339 0 01-1.7.343v.5c.657 0 1.295-.129 1.895-.383l-.195-.46z"/></g><path fill="#5F7CE3" d="M8 10.308a2.308 2.308 0 100-4.616 2.308 2.308 0 000 4.616z"/></svg>