<svg xmlns="http://www.w3.org/2000/svg" fill="none" viewBox="0 0 16 16"><g fill="#D46C6C"><path d="M10.12 5.474l-.675 1.368c.222.206.378.477.44.785h.51c.058-.291.202-.553.407-.756l-.682-1.397z"/><path d="M8.877 6.511l1.243-2.52 1.24 2.536c.049-.016.098-.029.147-.042L12.685 3H7.552l1.175 3.475a2.5 2.5 0 01.15.036zM8.45 8.74a.824.824 0 00.688-1.277.81.81 0 00-.091-.117l-.004-.004a.609.609 0 00-.11-.095l-.004-.003c-.01-.006-.023-.016-.036-.023-.003 0-.003-.003-.006-.003l-.04-.023h-.003l-.042-.023h-.003c-.014-.006-.027-.013-.04-.016-.003 0-.006-.004-.01-.004l-.032-.013c-.003 0-.007-.003-.013-.003-.013-.003-.026-.01-.04-.013h-.002l-.046-.01c-.003 0-.007 0-.013-.003-.013-.003-.023-.003-.036-.007-.007 0-.01 0-.016-.003l-.033-.003H8.39c-.013 0-.023.003-.036.003h-.013c-.013.003-.026.003-.04.007h-.01l-.045.01a.828.828 0 00-.626.801.836.836 0 00.828.822zM11.908 7.09h-.006c-.013 0-.023-.003-.036-.003h-.043c-.016 0-.032 0-.052.003h-.016c-.013 0-.026.004-.04.004-.003 0-.01 0-.012.003l-.05.01h-.003l-.045.01-.013.003c-.013.003-.026.006-.04.013-.003 0-.006.003-.01.003a.613.613 0 00-.045.02l-.046.02c-.003 0-.006.003-.01.003-.012.006-.026.013-.039.023 0 0-.003 0-.003.003a.495.495 0 00-.085.059l-.003.003a.723.723 0 00-.206.239.824.824 0 00.715 1.234c.454 0 .822-.37.822-.825a.83.83 0 00-.662-.812c-.02-.006-.046-.01-.072-.013zM5.04 8.74a.824.824 0 000-1.65.824.824 0 000 1.65z"/><path d="M11.827 9.378c-.68 0-1.25-.468-1.413-1.097h-.548a1.464 1.464 0 01-1.638 1.08c-.19.292-.415.56-.68.808a4.494 4.494 0 01-1.565.976l-.134.049-.124-.066c-.685-.353-1.038-1.07-.914-1.763a1.264 1.264 0 01-.225-.06c-.013.024-.023.05-.036.076-.209.432-.427.877-.506 1.355-.085.51-.12 1.443.597 1.94.314.216.643.324 1.012.324.708 0 1.472-.38 2.28-.782.634-.314 1.286-.641 1.965-.808a8.28 8.28 0 01.77-.138c.46-.065.898-.13 1.253-.337a1.445 1.445 0 00.643-1.757c-.215.124-.466.2-.737.2z"/></g></svg>