<svg xmlns="http://www.w3.org/2000/svg" fill="none" viewBox="0 0 16 16"><g fill-rule="evenodd" clip-rule="evenodd"><path fill="#81C5DA" d="M5.5 3.5h-1a1 1 0 00-1 1v2a1 1 0 01-1 1H2v1h.5a1 1 0 011 1v2c0 .55.465.865 1 1h1v-1h-1V9a1 1 0 00-1-1 1 1 0 001-1V4.5h1v-1zm7 1a1 1 0 00-1-1h-1v1h1V7a1 1 0 001 1 1 1 0 00-1 1v2.5h-1v1h1a1 1 0 001-1v-2a1 1 0 011-1h.5v-1h-.5a1 1 0 01-1-1v-2z"/><path fill="#F5DFA5" d="M6 7.5a.5.5 0 110 1 .5.5 0 010-1zm2 0a.5.5 0 110 1 .5.5 0 010-1zm2.5.5a.5.5 0 10-1 0 .5.5 0 001 0z"/></g></svg>