<svg xmlns="http://www.w3.org/2000/svg" fill="none" viewBox="0 0 16 16"><g fill-rule="evenodd" clip-rule="evenodd"><path fill="#81C5DA" d="M7.996 14A5.96 5.96 0 012 8.004C2 4.656 4.648 2 7.996 2A5.958 5.958 0 0114 8.004 5.961 5.961 0 017.996 14zm0-1.263c2.663 0 4.756-2.093 4.756-4.733 0-2.656-2.093-4.74-4.756-4.74-2.655 0-4.748 2.092-4.748 4.74 0 2.64 2.093 4.733 4.748 4.733z"/><path fill="#F5DFA5" d="M11 7.194H9.461c-.123-.59-.638-.953-1.326-.953-.925 0-1.49.658-1.49 1.748 0 1.112.565 1.77 1.49 1.77.72 0 1.203-.333 1.326-.908H11C10.845 10.183 9.748 11 8.127 11 6.195 11 5 9.842 5 7.989 5 6.158 6.203 5 8.119 5c1.588 0 2.726.863 2.881 2.194z"/></g></svg>