<svg xmlns="http://www.w3.org/2000/svg" fill="none" viewBox="0 0 16 16"><path fill="#BD733D" fill-rule="evenodd" d="M8.87 10.71H7.13V8L5.814 9.733 4.5 8.001v2.708h-1.74V5.293h1.74l1.315 1.812L7.13 5.293h1.74v5.416zm2.611.437L9.316 8h1.315V5.292h1.74V8h1.316l-2.204 3.147h-.002zM13.995 3.5H2.005a.952.952 0 00-.705.308c-.2.206-.3.448-.3.727v6.93c0 .292.1.538.3.737.2.199.434.298.705.298h11.99c.27 0 .506-.1.706-.298.2-.199.299-.445.299-.737v-6.93c0-.279-.1-.521-.3-.727a.952.952 0 00-.705-.308z" clip-rule="evenodd"/></svg>