<svg xmlns="http://www.w3.org/2000/svg" fill="none" viewBox="0 0 16 16"><path fill="#F5DFA5" d="M3.48 2.647h5.41c.756 0 1.37.61 1.37 1.361 0 .752-.614 1.362-1.37 1.362H3.48c-.755 0-1.37-.61-1.37-1.362 0-.75.615-1.361 1.37-1.361zM12.422 5.37c.772 0 1.397-.61 1.397-1.362 0-.752-.625-1.361-1.397-1.361s-1.398.61-1.398 1.361c0 .753.626 1.362 1.398 1.362zM7.078 6.713h5.344a1.37 1.37 0 011.463 1.268c.057.752-.519 1.4-1.274 1.456H7.078A1.37 1.37 0 015.614 8.17c-.057-.751.52-1.4 1.275-1.456h.189z"/><path fill="#D46C6C" d="M3.508 6.685a1.39 1.39 0 110 2.78 1.403 1.403 0 01-1.397-1.39c0-.77.623-1.39 1.397-1.39z"/><path fill="#F5DFA5" d="M3.48 10.63h5.41c.756 0 1.37.61 1.37 1.362 0 .751-.614 1.361-1.37 1.361H3.48c-.755 0-1.37-.61-1.37-1.361 0-.752.615-1.362 1.37-1.362zM12.422 13.354c.772 0 1.397-.61 1.397-1.362 0-.753-.625-1.362-1.397-1.362s-1.398.61-1.398 1.362c0 .752.626 1.361 1.398 1.361z"/></svg>