<svg xmlns="http://www.w3.org/2000/svg" fill="none" viewBox="0 0 16 16"><path fill="#6EB668" fill-rule="evenodd" d="M8 2a.599.599 0 00-.298.079l-4.96 2.82a.602.602 0 00-.298.52v5.66c0 .212.113.406.299.512l4.959 2.83a.6.6 0 00.596 0l4.96-2.83a.587.587 0 00.298-.511V5.42a.602.602 0 00-.299-.521l-4.959-2.82A.599.599 0 008 2" clip-rule="evenodd"/><mask id="a" width="12" height="13" x="2" y="2" maskUnits="userSpaceOnUse"><path fill="#fff" fill-rule="evenodd" d="M8 2a.599.599 0 00-.298.079l-4.96 2.82a.602.602 0 00-.298.52v5.66c0 .212.113.406.299.512l4.959 2.83a.6.6 0 00.596 0l4.96-2.83a.587.587 0 00.298-.511V5.42a.602.602 0 00-.299-.521l-4.959-2.82A.599.599 0 008 2" clip-rule="evenodd"/></mask><g mask="url(#a)"><path fill="#B2E4AE" fill-rule="evenodd" d="M7.492.938l6.481 11.226-5.57 3.216L1.922 4.154 7.492.938z" clip-rule="evenodd"/></g></svg>