<svg xmlns="http://www.w3.org/2000/svg" fill="none" viewBox="0 0 16 16"><path fill="#D46C6C" fill-rule="evenodd" d="M4.745 3.745a1 1 0 00-1 1V9.73a1 1 0 001 1H6.24a1 1 0 001-1V6.362a.872.872 0 111.745 0v1.995h-.349c-.48 0-.873.4-.873.887v3.236H3a1 1 0 01-1-1V3a1 1 0 011-1h8.48a1 1 0 011 1v3.01a2.145 2.145 0 00-1.75 0V4.745a1 1 0 00-1-1H4.745z" clip-rule="evenodd"/><path fill="#F5DFA5" fill-rule="evenodd" d="M13.57 9.463h-.328v-.665c0-.918-.733-1.664-1.637-1.664s-1.637.746-1.637 1.664v.665H9.64c-.36 0-.654.3-.654.665v3.327c0 .366.294.665.654.665h3.93c.36 0 .655-.3.655-.665v-3.327a.662.662 0 00-.655-.665zm-1.965 2.994c-.36 0-.655-.3-.655-.666 0-.365.295-.665.655-.665.36 0 .655.3.655.665a.662.662 0 01-.655.666zm-1.015-3.66v.666h2.03v-.665c0-.57-.455-1.032-1.015-1.032-.56 0-1.015.463-1.015 1.032z" clip-rule="evenodd"/></svg>