<svg xmlns="http://www.w3.org/2000/svg" fill="none" viewBox="0 0 16 16"><rect width="1.111" height=".568" x="11.833" y="4.305" fill="#81C5DA" rx=".284"/><rect width="3.333" height=".568" x="3.5" y="13.4" fill="#D46C6C" rx=".284"/><rect width="2.222" height=".568" x="10.167" y="8.853" fill="#A99BE2" rx=".284"/><rect width="2.778" height=".568" x="6.833" y="8.853" fill="#D46C6C" rx=".284"/><rect width="2.778" height=".568" x="3.5" y="8.853" fill="#81C5DA" rx=".284"/><rect width="3.333" height=".568" x="3.5" y="11.126" fill="#A99BE2" rx=".284"/><rect width="3.333" height=".568" x="3.5" y="6.579" fill="#A99BE2" rx=".284"/><rect width="6.111" height=".568" x="6.278" y="3.168" fill="#F5DFA5" rx=".284"/><rect width="2.222" height=".568" x="3.5" y="3.168" fill="#D46C6C" rx=".284"/><rect width="1.111" height=".568" x="5.722" y="12.263" fill="#F5DFA5" rx=".284"/><rect width="1.111" height=".568" x="5.722" y="5.442" fill="#81C5DA" rx=".284"/><rect width="1.667" height=".568" x="3.5" y="12.263" fill="#81C5DA" rx=".284"/><rect width="1.667" height=".568" x="3.5" y="5.442" fill="#F4BF75" rx=".284"/><rect width="5" height=".568" x="7.944" y="7.716" fill="#81C5DA" rx=".284"/><rect width="2.222" height=".568" x="5.167" y="7.716" fill="#F5DFA5" rx=".284"/><rect width="1.111" height=".568" x="3.5" y="7.716" fill="#D46C6C" rx=".284"/><rect width="2.778" height=".568" x="8.5" y="4.305" fill="#A99BE2" rx=".284"/><rect width="4.444" height=".568" x="3.5" y="4.305" fill="#81C5DA" rx=".284"/><rect width="5.556" height=".568" x="5.167" y="9.989" fill="#F5DFA5" rx=".284"/><rect width="1.111" height=".568" x="3.5" y="9.989" fill="#A99BE2" rx=".284"/><rect width="3.333" height=".568" x="10.167" y="5.442" fill="#D46C6C" rx=".284"/><rect width="3.333" height=".568" x="10.167" y="6.579" fill="#F5DFA5" rx=".284"/><rect width="7.222" height=".568" x="3.5" y="2.032" fill="#81C5DA" rx=".284"/></svg>