<svg xmlns="http://www.w3.org/2000/svg" fill="none" viewBox="0 0 16 16"><g fill-rule="evenodd" clip-rule="evenodd"><path fill="#6B7394" d="M8 1L1.994 4.51v7L8 15l6-3.55.007-6.9L8 1zm5.477 10.15L8 14.39l-5.481-3.186v-6.39L8 1.61l5.483 3.24-.006 6.3z"/><path fill="#6A9FB5" d="M12.784 6.827L9.973 8.482l-.002 3.963 2.824-1.662-.01-3.956z"/><path fill="#81C5DA" d="M11.641 6.151l1.143.676-2.811 1.655-.002 3.963-1.307-.76.01-3.748 2.967-1.786z"/><path fill="#9DBD58" d="M11.256 5.175l.001.733-3.051 1.841.003 4.05-.71.417-.002-4.788 3.759-2.253z"/><path fill="#B2E4AE" d="M10.004 4.435l1.252.74-3.759 2.253.002 4.788-1.402-.816-.003-4.694 3.91-2.27z"/><path fill="#AA759F" d="M9.613 3.303v.884l-4.008 2.35v5.049l-.701.408.014-5.856 4.695-2.835z"/><path fill="#D491B9" d="M8.08 2.392L3.265 5.197v5.839l1.648.958.005-5.856 4.7-2.835-1.538-.911z"/></g></svg>