<svg xmlns="http://www.w3.org/2000/svg" fill="none" viewBox="0 0 16 16"><path fill="#212431" stroke="#555B77" d="M8 2.5a5.5 5.5 0 110 11 5.5 5.5 0 010-11z"/><g fill="#7ACCEE" fill-rule="evenodd" clip-rule="evenodd"><path d="M7.19 5.776c.203.066.373.157.512.273.13.116.234.264.31.446.077.182.116.38.116.595 0 .222-.033.42-.098.594a1.346 1.346 0 01-.268.447 1.812 1.812 0 01-.541.383c-.2.091-.453.145-.762.161l-.225.006-.103.007V10.1H5.23V5.702l.407-.012c.273-.009.547-.013.822-.013.285 0 .529.033.731.1zm-.925 2.131h.17c.244-.01.437-.081.579-.217.141-.136.212-.32.212-.551a.784.784 0 00-.182-.527c-.122-.144-.3-.22-.536-.229l-.256-.006-.121.006v1.511l.134.013zM9.905 8.043a2.172 2.172 0 01-.414-.186.23.23 0 01-.11-.198c0-.083.032-.147.098-.192a.495.495 0 01.28-.068c.138 0 .294.033.469.099.174.066.298.12.371.16v-.743a2.83 2.83 0 00-.365-.149 1.547 1.547 0 00-.5-.074c-.397 0-.714.1-.95.303a.976.976 0 00-.352.775c0 .19.069.355.207.495.138.14.37.269.694.384.187.066.312.14.377.223a.4.4 0 01.098.248.25.25 0 01-.098.21c-.065.05-.174.075-.329.075a1.47 1.47 0 01-.493-.099 2.096 2.096 0 01-.407-.185v.73c.121.067.263.127.426.18a1.8 1.8 0 00.474.093c.463.009.81-.093 1.041-.303.232-.211.347-.47.347-.775a.965.965 0 00-.213-.6c-.133-.162-.35-.296-.65-.403z"/></g></svg>