<svg xmlns="http://www.w3.org/2000/svg" fill="none" viewBox="0 0 16 16"><path fill="#F5DFA5" fill-rule="evenodd" d="M13.998 6.897c0 2.472-2.569 4.476-5.739 4.476S2.52 9.369 2.52 6.897c0-2.473 2.57-4.477 5.74-4.477 3.17 0 5.739 2.004 5.739 4.477zM8.25 6.302c1.124 0 2.09.625 2.6 1.26.407.501.386.785.357 1.175-.008.114-.018.238-.017.379 0 1.703-.447 1.737-.89 1.77-.142.011-.284.022-.41.088-.414.204-.832.187-1.264.169a8.953 8.953 0 00-.376-.01h-.01c-.124 0-.247.004-.368.009-.435.017-.855.034-1.271-.172-.127-.066-.27-.076-.411-.087-.444-.033-.89-.067-.89-1.77 0-.14-.009-.262-.018-.375-.03-.39-.053-.673.355-1.176.507-.635 1.474-1.26 2.6-1.26H8.25zM4.58 7.356c.514 0 .93-.422.93-.942a.936.936 0 00-.93-.942.936.936 0 00-.93.942c0 .52.417.942.93.942zm8.26-.942c0 .52-.416.942-.93.942a.936.936 0 01-.93-.942c0-.52.417-.942.93-.942.514 0 .93.421.93.942zM8.176 7.809h.14v1.92a.623.623 0 00-.057-.005.68.68 0 00-.083.008V7.809zm0 1.923c-.129.02-.277.073-.43.129a5.766 5.766 0 01-.263.09 4.141 4.141 0 01-.296.086c-.116.031-.18.048-.12.058.163.007.336-.02.522-.049.204-.031.425-.066.67-.062.243-.004.463.03.666.062.187.029.361.056.528.05.056-.008 0-.024-.108-.052-.082-.023-.195-.053-.309-.094a5.933 5.933 0 01-.263-.09 2.363 2.363 0 00-.457-.132v.1h-.14v-.096zm.04 3.288c.38 0 .687-.311.687-.695a.691.691 0 00-.687-.696.691.691 0 00-.686.696c0 .384.307.695.686.695zm.617-.692a.62.62 0 01-.617.625.62.62 0 01-.616-.625.62.62 0 01.616-.625c.34 0 .617.28.617.625zm-.437-.2c.037.034.057.082.057.15 0 .067-.02.114-.057.148a.284.284 0 01-.177.047h-.07v.152h-.12v-.544h.19c.08 0 .14.017.177.048zm-.067.142c0 .03-.006.055-.02.071-.013.017-.04.027-.08.024h-.08v-.182h.067c.04 0 .07.006.087.02.016.013.026.037.026.067z" clip-rule="evenodd"/><path fill="#946A52" fill-rule="evenodd" d="M11.25 10.457a8.69 8.69 0 01-6.084 0c-.02-.007-.03-.017-.063-.03v.388c0 .172.14.371.303.432a7.999 7.999 0 005.603 0 .492.492 0 00.293-.432v-.389c0 .01-.033.02-.053.03zM6.283 2.942s-3.71.52-3.39 4.252c.017.19-.74-.807-1.326-1.111C.98 5.779 1 4.796 1 4.796S.99 3.084 3.36 2.577c2.366-.503 2.923.365 2.923.365zM10.193 2.942s3.71.52 3.39 4.252c-.017.19.74-.807 1.326-1.111.586-.304.566-1.287.566-1.287s.01-1.712-2.36-2.219c-2.366-.503-2.922.365-2.922.365zM9.113 7.936c.11.246-.27.648-.874.648-.603 0-.983-.402-.873-.648.107-.254.49-.335.873-.338.384.003.767.084.874.338z" clip-rule="evenodd"/></svg>