<svg xmlns="http://www.w3.org/2000/svg" fill="none" viewBox="0 0 16 16"><g fill-rule="evenodd" clip-rule="evenodd"><path fill="#F5DFA5" d="M11.703 5.796h-.856v1.309s.046 1.561-1.41 1.561h-2.43s-1.365-.024-1.365 1.437v2.416c-.21 1.9 4.924 1.96 4.882.249l-.003-1.256H8.07v-.377h3.423c2.25.188 2.107-5.418.209-5.34zM9.247 13.07a.502.502 0 010-.83c.293-.185.661.047.661.415s-.368.6-.661.415z"/><path fill="#81C5DA" d="M4.458 11.21h.856V9.9S5.268 8.34 6.724 8.34h2.43s1.365.024 1.365-1.437V4.294c-.217-1.79-5.039-1.648-4.882-.036v1.235h2.452v.377H4.667c-2.311-.053-2.064 5.34-.209 5.34zm2.014-6.445a.502.502 0 010-.831c.293-.184.662.047.662.415s-.369.6-.662.416z"/></g></svg>