<svg xmlns="http://www.w3.org/2000/svg" fill="none" viewBox="0 0 16 16"><path fill="#D46C6C" d="M8.56 14s-1.19-2.756-.888-5.284c.302-2.53 2.26-3.68 3.37-3.804 1.11-.124 1.716.576 1.716.576l.242-.37s-1.594-1.645-3.613-1.46C7.37 3.844 5.976 5.2 5.11 6.845 4.24 8.49 3.736 9.641 3.393 11.368 3.05 13.096 3.191 14 3.191 14H8.56zm-6.438-2.756l1.049.083-.182 1.069L2 12.272l.122-1.028zm1.655-2.261l.282-.802-.928-.37-.303.864.949.308zm1.312-2.755l.545-.658-.707-.473-.565.637.727.494zm1.433-2.55l.484.597.666-.39-.484-.556-.666.35zM8.882 3l.122.596.828-.02-.081-.535L8.883 3zm2.786 1.007l.565.308.122-.185-.666-.493-.021.37zm-.1 1.214v.308l.544.062v-.247l-.545-.123zm-1.736.267l.262.493.384-.308-.08-.329-.566.144zm-.828.637l.404.617-.242.432-.586-.658.424-.391zm-.807 1.706l-.263.535.687.596.161-.679-.585-.452zm-.323 2.591l.847.37-.04-.679-.767-.411-.04.72zm.485 2.57l1.07.062-.384-.802h-.888l.202.74z"/></svg>