<svg xmlns="http://www.w3.org/2000/svg" fill="none" viewBox="0 0 16 16"><path fill="#81C5DA" d="M11.879 3H4.123a1.114 1.114 0 00-1.122 1.123v7.755c.008.663.53 1.127 1.122 1.122h7.756c.767-.01 1.109-.59 1.122-1.122V4.123C12.988 3.59 12.646 3.01 11.879 3zm-5.833 8.112c-.078.58-.441.959-1.107.977-.52.015-.941-.21-1.203-.703l.629-.383s.165.299.343.36c.094.033.29.045.418-.039.118-.076.154-.28.154-.28v-2.76h.766v2.828zm2.51.826c-.612.272-1.7.173-2.073-.648l.615-.355c.307.584 1.105.582 1.262.198.152-.376-.309-.523-.881-.777-.25-.128-.634-.33-.75-.825-.087-.373-.01-.936.574-1.193.81-.297 1.43.082 1.613.52l-.588.382c-.087-.157-.272-.317-.486-.329-.194-.01-.374.091-.38.353.012.382.514.382 1.117.764.44.28.523.493.564.88.03.286-.023.78-.587 1.03zm2.984.13l-.738-1.311-.738 1.312h-.752l1.066-1.955-.998-1.858h.766l.656 1.216.656-1.216h.752l-.985 1.858 1.066 1.955h-.751z"/></svg>