<svg xmlns="http://www.w3.org/2000/svg" fill="none" viewBox="0 0 16 16"><path fill="#D46C6C" fill-rule="evenodd" d="M7.856 9.11c0-.201-.064-.35-.193-.446-.128-.096-.333-.143-.615-.143h-.522v1.212h.547c.522 0 .783-.208.783-.623zM3 4a1 1 0 011-1h8a1 1 0 011 1v8a1 1 0 01-1 1H4a1 1 0 01-1-1V4zm4.965 8.13l-.902-1.66h-.537v1.66h-.917V7.783h1.535c.547 0 .957.11 1.228.332.271.22.407.54.407.957 0 .294-.076.545-.23.75a1.214 1.214 0 01-.637.436l1.085 1.872H7.965zm1.464-4.347v4.347h3.136v-.734h-2.22v-1.1h1.903v-.734h-1.902V8.517h2.092v-.734h-3.01z" clip-rule="evenodd"/></svg>