<svg xmlns="http://www.w3.org/2000/svg" fill="none" viewBox="0 0 16 16"><path fill="url(#paint0_linear)" d="M11.95 5.293c0-.59-.16-1.141-.443-1.62-.748-.74-2.375-.913-2.78-.003-.414.932.698 1.97 1.184 1.887.619-.105-.11-1.472-.11-1.472.947 1.717.729 1.192-.982 2.769-1.711 1.577-3.459 4.904-3.714 5.045a.206.206 0 01-.034.017h6.711c.119 0 .195-.12.142-.222L10.17 8.35a.15.15 0 01.062-.201c1.027-.568 1.719-1.633 1.719-2.856z"/><path fill="url(#paint1_linear)" d="M11.95 5.293c0-.59-.16-1.141-.443-1.62-.748-.74-2.375-.913-2.78-.003-.414.932.698 1.97 1.184 1.887.619-.105-.11-1.472-.11-1.472.947 1.717.729 1.192-.982 2.769-1.711 1.577-3.459 4.904-3.714 5.045a.206.206 0 01-.034.017h6.711c.119 0 .195-.12.142-.222L10.17 8.35a.15.15 0 01.062-.201c1.027-.568 1.719-1.633 1.719-2.856z"/><path fill="#8A2828" d="M5.105 11.898c.255-.14 2.002-3.47 3.713-5.046 1.711-1.577 1.93-1.052.983-2.769 0 0-3.622 4.889-4.933 7.307"/><path fill="#D46C6C" d="M5.615 7.518c2.446-4.33 2.767-4.766 4.041-4.766.67 0 1.345.29 1.782.808A3.446 3.446 0 008.582 2H4.426a.156.156 0 00-.158.152v8.064c.247-.615.668-1.494 1.347-2.698z"/><path fill="url(#paint2_linear)" d="M8.818 6.852c-1.71 1.577-3.458 4.906-3.713 5.046-.255.14-.683.158-.91-.088-.242-.26-.619-.683 1.42-4.293 2.446-4.33 2.766-4.766 4.04-4.766.67 0 1.346.291 1.783.808l.07.114c-.747-.741-2.375-.913-2.779-.003-.415.932.697 1.969 1.183 1.887.62-.106-.109-1.472-.109-1.472.945 1.715.726 1.19-.985 2.767z"/><path fill="url(#paint3_linear)" d="M5.815 7.71c2.446-4.33 2.767-4.766 4.04-4.766.552 0 1.107.198 1.53.556a2.36 2.36 0 00-1.73-.749c-1.274 0-1.594.437-4.04 4.767-2.039 3.61-1.662 4.031-1.42 4.292a.592.592 0 00.116.095c-.213-.298-.307-.99 1.504-4.195z" opacity=".3"/><defs><linearGradient id="paint0_linear" x1="6.671" x2="9.508" y1="9.132" y2="9.517" gradientUnits="userSpaceOnUse"><stop stop-color="#FF6533"/><stop offset=".157" stop-color="#FF5633"/><stop offset=".434" stop-color="#FF4333"/><stop offset=".714" stop-color="#FF3733"/><stop offset="1" stop-color="#F33"/></linearGradient><linearGradient id="paint1_linear" x1="5.023" x2="10.604" y1="9.669" y2="12.177" gradientUnits="userSpaceOnUse"><stop stop-color="#AC4142"/><stop offset="1" stop-color="#D14748"/></linearGradient><linearGradient id="paint2_linear" x1="6.744" x2="7.862" y1="7.756" y2="8.238" gradientUnits="userSpaceOnUse"><stop stop-color="#F4BF75"/><stop offset="1" stop-color="#FB8840"/></linearGradient><linearGradient id="paint3_linear" x1="3.569" x2="1.958" y1="2.636" y2="13.736" gradientUnits="userSpaceOnUse"><stop stop-color="#fff"/><stop offset="1" stop-color="#fff" stop-opacity=".01"/></linearGradient></defs></svg>