<svg xmlns="http://www.w3.org/2000/svg" fill="none" viewBox="0 0 16 16"><g clip-path="url(#clip0)"><path fill="#D46C6C" d="M9.44 4.828c-.825 2.206-2.364 3.731-4.57 4.513-1.08.384-1.977-.554-1.175-2.158.85-1.697 2.147-2.937 3.888-3.689 1.563-.526 2.181.086 1.857 1.334zM9.11 6.491v.001l3.645-.255c-.09-.087-.142-.144-.2-.19L9.302 3.434c-.107-.086-.173-.222-.316-.412.464 0 .84-.004 1.214.001.453.007.917-.037 1.357.044.952.176 1.46.79 1.441 1.757-.016.907-.56 7.637-.56 7.637l-1.464-1.305s-.113-.127-.182-.171c-.587-.374-.832-.931-.966-1.598-.235-1.124-.578-2.306-.716-2.897zm-2.877 2.68l3.796 1.215a12.498 12.498 0 01-2.178 1.752l4.255.325v.054s-6.902.47-7.188.465C3.704 12.96 3.016 12.294 3 11.076c-.01-.684.061-1.37.105-2.053.003-.052.077-.1.118-.149.061.055.15.097.18.166.362.84 1.173 2.753 1.173 2.753s.5-.051.732-.11c.09-.024.196-.134.225-.227.306-.933.593-2.055.7-2.285z"/></g><defs><clipPath id="clip0"><path fill="#fff" d="M0 0h10v10H0z" transform="translate(3 3)"/></clipPath></defs></svg>