<svg xmlns="http://www.w3.org/2000/svg" fill="none" viewBox="0 0 16 16"><path fill="#D46C6C" fill-rule="evenodd" d="M13.933 7.858l-.505-.306a.296.296 0 00-.01-.073.301.301 0 01-.009-.073l.433-.413a.16.16 0 00.045-.073.379.379 0 00.01-.09.582.582 0 00-.046-.073.164.164 0 00-.063-.054l-.56-.198a.296.296 0 01-.026-.073.392.392 0 01-.009-.072l.343-.487a.285.285 0 00.027-.08.129.129 0 00-.01-.081.274.274 0 00-.054-.073.119.119 0 00-.09-.036l-.577-.09-.073-.144.253-.522a.189.189 0 00.01-.099.342.342 0 00-.027-.08.113.113 0 00-.064-.055.223.223 0 00-.08-.018l-.596.018a.505.505 0 01-.045-.054.506.506 0 00-.045-.054l.126-.576c.012-.037.012-.067 0-.09l-.036-.073a.158.158 0 00-.081-.045.406.406 0 00-.08-.01l-.578.145a.27.27 0 01-.063-.045.27.27 0 00-.064-.045l.036-.595a.147.147 0 00-.027-.09.177.177 0 00-.063-.054.111.111 0 00-.081-.036.174.174 0 00-.08.019l-.542.234a.897.897 0 01-.064-.036.893.893 0 00-.063-.036l-.09-.576a.58.58 0 00-.045-.073.164.164 0 00-.064-.054.292.292 0 00-.09-.018.177.177 0 00-.09.035l-.468.343a.296.296 0 00-.073-.027.4.4 0 00-.073-.009l-.198-.558a.312.312 0 00-.055-.072.116.116 0 00-.09-.036c-.024-.012-.05-.012-.08 0a.245.245 0 00-.081.054l-.397.432a.3.3 0 01-.073-.009.3.3 0 00-.073-.01l-.307-.504a.682.682 0 00-.073-.063.14.14 0 00-.09-.027.125.125 0 00-.072.027.543.543 0 00-.073.063l-.307.505a.3.3 0 00-.073.01.3.3 0 01-.073.008l-.414-.432a.118.118 0 00-.063-.054c-.03-.012-.057-.012-.081 0a.122.122 0 00-.09.036.283.283 0 00-.054.072l-.199.558a.376.376 0 00-.145.036l-.488-.342a.112.112 0 00-.08-.036.174.174 0 00-.145.072.387.387 0 00-.045.073l-.09.576a.895.895 0 00-.063.036.898.898 0 01-.064.036l-.541-.234a.174.174 0 00-.08-.019.112.112 0 00-.082.036.191.191 0 00-.063.054.137.137 0 00-.027.09l.036.595a.27.27 0 00-.063.045.27.27 0 01-.064.045l-.577-.144a.407.407 0 00-.08.01.158.158 0 00-.082.044.16.16 0 00-.045.073.16.16 0 00.01.09l.125.576a.505.505 0 00-.045.054.504.504 0 01-.045.054l-.595-.018a.216.216 0 00-.081.018.118.118 0 00-.064.054.111.111 0 00-.035.081c0 .03.006.063.018.1l.253.521-.073.145-.595.09c-.024 0-.048.011-.073.035a.251.251 0 00-.054.073.13.13 0 00-.01.08c.006.03.015.057.027.081l.343.487a.161.161 0 01-.019.072.161.161 0 00-.018.073l-.559.198a.191.191 0 00-.063.054.388.388 0 00-.045.073c0 .036.003.066.009.09a.168.168 0 00.045.073l.433.413a.298.298 0 01-.01.073.299.299 0 00-.009.073l-.505.306a.118.118 0 00-.055.064.216.216 0 00-.018.08c0 .036.006.066.018.09.013.024.03.042.055.054l.505.324c0 .024.003.048.01.073.006.025.009.049.009.073l-.433.396a.158.158 0 00-.045.08.406.406 0 00-.01.081.208.208 0 00.046.081.242.242 0 00.063.045l.559.217c0 .024.006.048.018.072a.161.161 0 01.019.073l-.343.468a.284.284 0 00-.027.08.129.129 0 00.01.082c.012.036.03.063.054.08a.122.122 0 00.073.027l.595.108a.2.2 0 01.036.054l.036.073-.253.54a.173.173 0 00-.018.081c0 .03.011.057.035.08a.118.118 0 00.064.055c.03.012.057.019.08.019l.596-.019a.27.27 0 00.045.063l.045.045-.126.577a.188.188 0 00-.009.099c.006.03.021.051.045.063.024.024.051.042.081.054.03.013.057.013.08 0l.578-.144a.437.437 0 00.063.054c.019.013.034.03.045.055l-.018.576c0 .036.009.066.027.09a.66.66 0 00.063.073c.024.012.05.02.08.026a.13.13 0 00.082-.01l.541-.252a.907.907 0 01.063.036c.019.012.04.024.064.036l.09.576a.327.327 0 00.045.09.178.178 0 00.063.054h.081l.081-.035.487-.343a.297.297 0 00.073.027.297.297 0 01.073.026l.198.541c.013.036.03.063.054.08a.147.147 0 00.09.027c.024.012.051.012.081 0a.217.217 0 00.064-.036l.414-.432h.144l.307.505a.667.667 0 00.073.063.115.115 0 00.073.027.147.147 0 00.09-.027.65.65 0 00.073-.063l.307-.505h.144l.397.432a.83.83 0 00.08.036c.03.012.058.012.082 0a.147.147 0 00.09-.026c.024-.018.035-.045.035-.081l.218-.54a.297.297 0 01.072-.027.297.297 0 00.073-.027l.469.343a.177.177 0 00.09.035h.09a.191.191 0 00.063-.054.29.29 0 00.045-.09l.09-.576a.929.929 0 00.064-.036.883.883 0 01.063-.036l.541.253c.024.012.051.015.081.01a.342.342 0 00.081-.027.676.676 0 00.064-.073.14.14 0 00.026-.09l-.036-.576a.434.434 0 01.064-.055.443.443 0 00.063-.054l.578.144c.023.013.05.013.08 0a.246.246 0 00.081-.054.188.188 0 00.036-.063.147.147 0 000-.1l-.126-.576.045-.045.045-.063.596.019c.024 0 .05-.007.08-.019a.118.118 0 00.064-.054.282.282 0 00.027-.08.128.128 0 00-.01-.082l-.252-.54.035-.073.036-.054.577-.108a.148.148 0 00.09-.027.162.162 0 00.054-.08.12.12 0 00.01-.081.346.346 0 00-.027-.08l-.343-.469a.375.375 0 01.036-.145l.559-.217a.19.19 0 00.108-.126.402.402 0 00-.009-.08.158.158 0 00-.045-.08l-.433-.397v-.073l.019-.073.505-.324a.123.123 0 00.055-.054.195.195 0 00.018-.09.216.216 0 00-.018-.08.118.118 0 00-.055-.064h.006zm-3.373 4.179a.361.361 0 01-.225-.163.4.4 0 01-.063-.27.36.36 0 01.162-.224.334.334 0 01.27-.045c.096.024.17.075.226.153.054.079.07.171.045.28a.34.34 0 01-.154.216.39.39 0 01-.262.054l.001-.001zm-.18-1.153a.296.296 0 00-.243.036.266.266 0 00-.136.198l-.18.846a4.65 4.65 0 01-.874.28 4.616 4.616 0 01-1.902 0 3.91 3.91 0 01-.885-.298l-.18-.846a.345.345 0 00-.144-.199.267.267 0 00-.235-.035l-.74.144a3.194 3.194 0 01-.378-.45h3.626l.018-.037v-1.26c0-.025-.006-.04-.018-.046a.08.08 0 00-.036-.009H7.008v-.793h1.136c.06 0 .175.027.343.08.169.054.29.225.361.514.024.083.057.236.1.458.042.223.081.382.117.478.024.108.1.237.226.387.126.15.261.225.406.225h1.84c-.06.083-.123.165-.19.243l-.207.243-.758-.162-.002.003zm-4.96 1.134a.42.42 0 01-.27-.054.279.279 0 01-.144-.216.331.331 0 01.045-.27.367.367 0 01.225-.163.327.327 0 01.27.045c.084.055.132.13.144.225a.331.331 0 01-.045.27.367.367 0 01-.225.162v.001zm-1.353-5.51a.349.349 0 010 .269.33.33 0 01-.18.198.374.374 0 01-.28 0 .33.33 0 01-.188-.18.325.325 0 01.18-.468.358.358 0 01.47.18h-.002zm-.414.99l.757-.343a.299.299 0 00.171-.18.334.334 0 00-.01-.252l-.144-.361h.613v2.81H3.778a5.98 5.98 0 01-.118-.594 4.209 4.209 0 01-.036-.856c.006-.078.015-.153.027-.225h.002zm3.354-.27v-.83h1.479c.048 0 .15.03.307.09.156.06.234.175.234.343 0 .145-.069.247-.207.307-.139.06-.286.09-.443.09h-1.37zm5.393.737c0 .06-.003.117-.01.171-.005.054-.008.105-.008.153h-.452c-.024 0-.038.006-.045.019a.126.126 0 00-.009.054v.217c0 .24-.057.4-.17.477a.758.758 0 01-.353.135.612.612 0 01-.324-.054c-.108-.049-.168-.109-.18-.18-.072-.384-.166-.646-.28-.784a2.936 2.936 0 00-.442-.423c.217-.132.42-.303.613-.513.193-.21.289-.453.289-.73 0-.3-.081-.543-.244-.73a2.801 2.801 0 00-.442-.423 1.687 1.687 0 00-.586-.252 2.488 2.488 0 00-.37-.054H4.735c.312-.36.679-.66 1.1-.9.42-.24.871-.402 1.352-.487l.559.576a.34.34 0 00.225.1.256.256 0 00.225-.1l.613-.576c.65.12 1.236.369 1.758.747.523.378.94.837 1.254 1.378l-.415.954a.269.269 0 00-.018.253.328.328 0 00.18.18l.811.36c0 .072.004.145.01.217.006.072.009.144.009.217l.002-.002zm-4.653-4.79a.347.347 0 01.506 0c.06.072.09.16.09.261a.3.3 0 01-.109.244.347.347 0 01-.505 0 .327.327 0 01-.1-.262.327.327 0 01.118-.243zm4.166 3.35a.325.325 0 01.199-.199.303.303 0 01.27.019c.096.036.159.099.189.189s.027.183-.01.279a.33.33 0 01-.188.18.374.374 0 01-.28 0 .33.33 0 01-.18-.199.35.35 0 010-.27z" clip-rule="evenodd"/></svg>