<svg xmlns="http://www.w3.org/2000/svg" fill="none" viewBox="0 0 16 16"><path fill="#DC332D" d="M12.45 14H3.463A1.47 1.47 0 012 12.527V3.473A1.47 1.47 0 013.463 2h8.995a1.47 1.47 0 011.463 1.474v9.061A1.482 1.482 0 0112.45 14z"/><path fill="#D46C6C" fill-rule="evenodd" d="M12.45 14H3.463A1.47 1.47 0 012 12.527V3.473A1.47 1.47 0 013.463 2h8.995a1.47 1.47 0 011.463 1.474v9.061A1.482 1.482 0 0112.45 14z" clip-rule="evenodd"/><mask id="a" width="12" height="12" x="2" y="2" maskUnits="userSpaceOnUse"><path fill="#fff" fill-rule="evenodd" d="M12.45 14H3.463A1.47 1.47 0 012 12.527V3.473A1.47 1.47 0 013.463 2h8.995a1.47 1.47 0 011.463 1.474v9.061A1.482 1.482 0 0112.45 14z" clip-rule="evenodd"/></mask><g mask="url(#a)"><path fill="#AC4142" d="M5.197 6.888l.78.786-.78 2.179.841.838-.84 2.118L6.387 14h7.524V6.412l-3.197-3.22V3.8L5.197 6.888z"/></g><g fill="#fff"><g opacity=".6"><path d="M5.197 6.888s5.51.556 5.51 1.483V6.147s0-.926-5.51-1.482v2.224zM5.197 9.853s5.51.556 5.51 1.482V9.112s0-.927-5.51-1.483v2.224z"/></g><path d="M10.715 3.191v2.224s0 .926-5.51 1.482V4.665c-.008 0 5.51-.547 5.51-1.474zM5.197 7.63s5.51-.556 5.51-1.483v2.224s0 .926-5.51 1.482V7.629zM5.197 12.809v-2.224s5.51-.556 5.51-1.482v2.223c.008.01.008.927-5.51 1.483z"/></g></svg>