<svg xmlns="http://www.w3.org/2000/svg" fill="none" viewBox="0 0 16 16"><g fill="#B2E4AE" fill-rule="evenodd" stroke="#B2E4AE" clip-rule="evenodd"><path d="M12.767 2.345c.06.048.1.11.122.19.022.079.025.17.01.27a.906.906 0 01-.109.304c-.012.013-.028.013-.047 0a.091.091 0 01-.037-.048c.012-.075-.014-.139-.08-.19-.066-.05-.168-.075-.306-.075-.258 0-.516.096-.777.29-.26.192-.513.447-.757.763-.245.316-.474.68-.687 1.09a10.37 10.37 0 00-.927 2.572c-.091.43-.137.822-.137 1.176 0 .19.053.285.16.285a.335.335 0 00.221-.095c.072-.064.156-.158.25-.285.019-.012.036-.01.051.005.016.016.02.036.015.061-.126.19-.273.348-.443.475-.17.126-.323.19-.46.19-.12 0-.203-.035-.25-.105a.464.464 0 01-.07-.265c0-.298.062-.67.187-1.115.126-.446.294-.917.504-1.414.21-.496.453-.99.73-1.484.275-.494.562-.938.86-1.333.298-.395.598-.716.9-.963.3-.247.583-.37.846-.37a.36.36 0 01.23.071zM3.473 13.86a.358.358 0 01-.122-.19.644.644 0 01-.01-.27.91.91 0 01.109-.304c.012-.013.028-.013.047 0a.09.09 0 01.037.048c-.012.075.015.139.08.19.066.05.168.075.306.075.258 0 .516-.096.777-.29.26-.192.513-.447.757-.763.245-.316.474-.68.687-1.09a10.362 10.362 0 00.927-2.572c.091-.43.137-.822.137-1.176 0-.19-.053-.284-.16-.284a.334.334 0 00-.221.094 1.87 1.87 0 00-.25.285c-.019.012-.036.01-.051-.005-.016-.016-.02-.036-.015-.062a1.88 1.88 0 01.443-.474c.17-.126.323-.19.46-.19.12 0 .203.035.25.105.047.07.07.158.07.265 0 .298-.062.67-.187 1.115-.126.446-.294.917-.504 1.414-.21.496-.453.99-.73 1.484-.275.493-.562.938-.86 1.333a5.568 5.568 0 01-.9.963c-.3.247-.583.37-.846.37a.36.36 0 01-.23-.071z"/></g></svg>