<svg xmlns="http://www.w3.org/2000/svg" fill="none" viewBox="0 0 16 16"><circle cx="8" cy="8" r="6" fill="#D46C6C"/><path fill="#fff" fill-rule="evenodd" d="M7.638 4.6c1.048-.665 2.496-.355 3.23.692V5.29c.351.49.49 1.102.384 1.695a2.1 2.1 0 01-.316.788c.23.437.307.938.22 1.424a2.1 2.1 0 01-.954 1.409l-1.84 1.17c-1.048.665-2.494.354-3.23-.692a2.238 2.238 0 01-.384-1.696 2.1 2.1 0 01.316-.787 2.211 2.211 0 01-.22-1.423 2.1 2.1 0 01.954-1.41L7.638 4.6zM5.89 10.602c.349.502.975.733 1.567.58h.001c.132-.035.258-.09.374-.164L9.67 9.85c.302-.19.51-.498.573-.848a1.345 1.345 0 00-.231-1.02 1.463 1.463 0 00-1.569-.58c-.132.036-.258.091-.373.164l-.702.446a.441.441 0 01-.586-.125.4.4 0 01-.067-.307.381.381 0 01.173-.256L8.729 6.16a.402.402 0 01.113-.05.44.44 0 01.472.175c.056.08.083.176.075.272l-.007.067.067.02c.258.078.502.2.72.36l.094.066.035-.106a1.345 1.345 0 00-.189-1.191 1.462 1.462 0 00-1.568-.58c-.132.036-.258.091-.374.164L6.33 6.526c-.302.19-.51.497-.573.848-.064.356.018.724.23 1.02.348.501.975.733 1.568.579.132-.035.258-.09.373-.164l.705-.446a.441.441 0 01.586.125c.062.09.086.2.066.308a.384.384 0 01-.173.255L7.276 10.22a.44.44 0 01-.664-.402l.006-.067-.067-.02a2.367 2.367 0 01-.72-.359l-.094-.066-.035.105a1.345 1.345 0 00.189 1.191z" clip-rule="evenodd"/></svg>