<svg xmlns="http://www.w3.org/2000/svg" fill="none" viewBox="0 0 16 16"><g fill-rule="evenodd" clip-rule="evenodd"><path fill="#6B7394" d="M3.967 4.837a1.104 1.104 0 01-1.038.757c-.608 0-1.101-.509-1.101-1.136 0-.628.493-1.137 1.1-1.137.48 0 .888.317 1.039.758h6.396v.038c.292-.025.594-.038.906-.038v.684c-.313 0-.616.014-.906.04v.034h-.303c-2.285.291-3.844 1.431-4.826 3.174a8.186 8.186 0 00-.848 2.255c-.06.27-.101.519-.129.742a4.14 4.14 0 00-.026.268l-.669-.034c.003-.062.012-.17.03-.319a8.66 8.66 0 01.14-.807 8.87 8.87 0 01.921-2.446c.703-1.246 1.68-2.217 2.96-2.833H3.967z"/><path fill="#D491B9" d="M4.069 10.29c-.962 0-1.738.77-1.738 1.723v.018c0 .951.779 1.723 1.738 1.723.962 0 1.738-.77 1.738-1.723v-.018c0-.95-.779-1.722-1.738-1.722zm-.745 1.74v-.017a.74.74 0 01.745-.737c.411 0 .745.331.745.737v.018a.74.74 0 01-.745.737.742.742 0 01-.745-.737zM12.014 2.833c-.962 0-1.738.77-1.738 1.723v.017c0 .951.779 1.723 1.738 1.723.961 0 1.738-.77 1.738-1.723v-.017c0-.952-.78-1.723-1.738-1.723zm-.745 1.74v-.017a.74.74 0 01.745-.737c.411 0 .745.33.745.737v.017a.74.74 0 01-.745.737.742.742 0 01-.745-.737z"/></g></svg>