<svg xmlns="http://www.w3.org/2000/svg" fill="none" viewBox="0 0 16 16"><path fill="#F5DFA5" fill-rule="evenodd" d="M12.388 2.99c-.178-.332-.44-.521-.784-.57-.344-.047-.73.013-1.158.18a1.922 1.922 0 00-.19.072l-.195.087c-.377.184-.769.425-1.175.721-.407.296-.798.623-1.175.98-.377.356-.728.728-1.052 1.115-.325.387-.601.767-.829 1.14a5.032 5.032 0 01-.013 1.004.583.583 0 00-.006.089 1.513 1.513 0 00-.02.15l-.004.058-.002-.043v-.142a.063.063 0 00.002-.032.102.102 0 01.009-.047c-.01-.003-.014-.01-.01-.02l.005-.015a4.176 4.176 0 00-.06-.405 7.269 7.269 0 01-.065-.39c-.08.093-.153.183-.219.27l-.198.261c.04.27.044.565.013.887l-.047.483.003-.057v-.192c.001-.128-.02-.283-.063-.464a2.79 2.79 0 01-.074-.436 4.211 4.211 0 00-.306.463c-.069.125-.098.206-.089.243.016.084.023.183.02.299-.002.115-.006.244-.011.387-.033.31-.073.609-.12.897l-.071.433-.043.117a11.553 11.553 0 00-.478 1.41c-.077.304-.138.582-.183.832-.046.25-.063.455-.052.614l.108-.01a4.31 4.31 0 01.139-.974c.088-.351.215-.724.382-1.119.241-.6.567-1.234.976-1.901.41-.667.886-1.335 1.428-2.004a17.63 17.63 0 012.686-2.503c.442-.328.873-.607 1.295-.837.421-.23.814-.4 1.177-.513-.346.13-.747.364-1.203.703-.457.34-.91.707-1.358 1.105A29.07 29.07 0 008.123 6.49c-.388.386-.682.698-.883.936a21.562 21.562 0 00-1.27 1.57c-.378.517-.72 1.037-1.024 1.56.362-.457.788-.73 1.28-.817l.737-.131.528-.316 1.278-.86c-.21-.02-.46-.047-.746-.08a7.273 7.273 0 00-.62-.05c-.187.01-.31.017-.37.023l-.089.01.74-.114 1.483-.076a26.66 26.66 0 001.415-1.167 8.99 8.99 0 001.24-1.323c.345-.457.583-.914.714-1.372.131-.457.082-.889-.15-1.295h.002z" clip-rule="evenodd"/></svg>