<svg xmlns="http://www.w3.org/2000/svg" fill="none" viewBox="0 0 16 16"><g fill="#5F7CE3"><path d="M12 2.5H4v1h8v-1zM2.5 4v8h1V4h-1zM4 13.5h8v-1H4v1zm9.5-1.5V4h-1v8h1zM12 13.5a1.5 1.5 0 001.5-1.5h-1a.5.5 0 01-.5.5v1zM2.5 12A1.5 1.5 0 004 13.5v-1a.5.5 0 01-.5-.5h-1zM4 2.5A1.5 1.5 0 002.5 4h1a.5.5 0 01.5-.5v-1zm8 1a.5.5 0 01.5.5h1A1.5 1.5 0 0012 2.5v1z"/><path fill-rule="evenodd" d="M8.87 10.655c.124.065.283.122.475.171.193.05.395.074.607.074.222 0 .392-.04.508-.119a.362.362 0 00.009-.617c-.111-.084-.297-.166-.558-.246-.358-.119-.646-.274-.866-.465a.912.912 0 01-.33-.718c0-.337.147-.62.44-.847.293-.228.694-.342 1.204-.343.244 0 .457.02.64.06.181.04.337.087.467.141l-.22.722a2.801 2.801 0 00-.358-.127 1.948 1.948 0 00-.545-.067c-.212 0-.37.039-.472.115-.103.077-.155.168-.155.272 0 .124.062.223.187.297.125.075.328.161.61.26.386.13.669.29.851.48a.989.989 0 01.272.71c0 .333-.142.62-.427.864-.284.243-.722.364-1.314.364-.25 0-.485-.026-.708-.078a2.662 2.662 0 01-.52-.167l.203-.737v.001zM6.54 11.636V8.237H5.273v-.692h3.394v.692H7.402v3.4H6.54z" clip-rule="evenodd"/></g></svg>