<svg xmlns="http://www.w3.org/2000/svg" fill="none" viewBox="0 0 16 16"><path fill="#5F7CE3" fill-rule="evenodd" d="M13 4a1 1 0 00-1-1H4a1 1 0 00-1 1v8a1 1 0 001 1h8a1 1 0 001-1V4zm-4.13 6.655l-.203.736c.125.06.298.115.52.167.223.052.459.078.708.078.592 0 1.03-.121 1.314-.364.285-.243.427-.531.427-.863 0-.283-.09-.52-.272-.71-.182-.192-.466-.351-.85-.48a3.674 3.674 0 01-.61-.26c-.126-.075-.188-.174-.188-.298 0-.104.052-.195.155-.272.103-.076.26-.115.472-.115.211 0 .393.023.545.067a2.8 2.8 0 01.358.127l.22-.722a2.706 2.706 0 00-.468-.141 3.029 3.029 0 00-.639-.06c-.51 0-.911.115-1.204.343-.293.228-.44.51-.44.848 0 .287.11.526.33.717.22.191.508.346.866.465.26.08.447.162.558.246.11.084.166.186.166.305a.362.362 0 01-.175.312c-.116.08-.286.12-.508.12-.212 0-.414-.025-.607-.075a2.292 2.292 0 01-.475-.17v-.002.001zM6.54 8.238v3.398h.862V8.238h1.265v-.693H5.273v.693H6.54z" clip-rule="evenodd"/></svg>