<svg xmlns="http://www.w3.org/2000/svg" fill="none" viewBox="0 0 16 16"><path fill="#3F445A" fill-rule="evenodd" d="M8.083 2.167H4.5a1.167 1.167 0 00-1.167 1.166v9.334A1.167 1.167 0 004.5 13.833h7a1.167 1.167 0 001.167-1.166V6.75H8.583a.5.5 0 01-.5-.5V2.167zm4.084 3.583L9.083 2.667V5.75h3.084z" clip-rule="evenodd"/><path fill="#F5DFA5" d="M10.191 10.875H11c.035-.516.383-.84.922-.84.535 0 .883.324.883.766 0 .402-.168.629-.64.914-.536.32-.774.672-.755 1.223l.004.312h.809v-.238c0-.403.144-.61.648-.907.516-.308.82-.734.82-1.34 0-.835-.695-1.449-1.726-1.449-1.133 0-1.738.676-1.774 1.559zm1.633 4.184a.5.5 0 00.516-.504.5.5 0 00-.516-.504.502.502 0 00-.511.504c0 .285.226.504.511.504z"/></svg>