<svg xmlns="http://www.w3.org/2000/svg" fill="none" viewBox="0 0 16 16"><g fill-rule="evenodd" clip-rule="evenodd"><path fill="#81C5DA" d="M7.876 3a.603.603 0 00-.33.09L2.972 5.337a.498.498 0 00-.306.446v5.436c0 .193.12.36.306.446l4.574 2.245c.093.06.209.091.33.091.122 0 .238-.03.33-.09l4.574-2.246a.498.498 0 00.307-.446V5.782a.497.497 0 00-.307-.446L8.206 3.091A.603.603 0 007.876 3zm0 1.088L11.93 6.08v1.064h-.01v3.503h.01v.273l-4.053 1.992-4.053-1.992V6.08l4.053-1.992zM5.04 6.57L7.876 5.14l2.837 1.43-2.837 1.432L5.04 6.571zm-.058 1.138v1.81l2.316 1.168v-1.81L4.981 7.708zm3.474 1.167l2.316-1.167v1.81l-2.316 1.168v-1.81z"/><path fill="#5F7CE3" d="M7.876 5.14L5.04 6.57l2.837 1.432 2.837-1.431L7.876 5.14zM4.981 7.709v2.696l2.316 1.167V8.876L4.981 7.71zm3.474 1.167l2.316-1.167v2.696l-2.316 1.167V8.876z"/></g></svg>