<svg xmlns="http://www.w3.org/2000/svg" fill="none" viewBox="0 0 16 16"><path fill="#B2E4AE" fill-rule="evenodd" d="M12.5 11V3.5A1.5 1.5 0 0011 2H3.75A1.75 1.75 0 002 3.75V5h2.5v7.5A1.5 1.5 0 006 14h6.25A1.75 1.75 0 0014 12.25V11h-1.5zM3 4v-.25a.75.75 0 011.5 0V4H3zm7 1.793l-.707.707 1 1-1 1 .707.707 1.354-1.354a.5.5 0 000-.707L10 5.793zm-3.854 2.06a.5.5 0 010-.707L7.5 5.793l.707.707-1 1 1 1-.707.707-1.354-1.354zM12.25 13a.75.75 0 00.75-.75V12H8v.25c0 .293-.061.54-.162.75h4.412z" clip-rule="evenodd"/></svg>